<svg width="21" height="20" viewBox="0 0 21 20" fill="none" xmlns="http://www.w3.org/2000/svg">
<g clip-path="url(#clip0_792_96)">
<path d="M20.3 4L14.2333 10L20.3 16C20.4333 15.7778 20.5 15.5333 20.5 15.2667V4.73333C20.5 4.46667 20.4333 4.22222 20.3 4ZM18.7667 3H2.23333C2.01111 3 1.76667 3.04444 1.5 3.13333L9.23333 10.8667C9.58889 11.2222 10.0111 11.4 10.5 11.4C10.9889 11.4 11.4111 11.2222 11.7667 10.8667L19.5 3.13333C19.2333 3.04444 18.9889 3 18.7667 3ZM0.7 4C0.566667 4.22222 0.5 4.46667 0.5 4.73333V15.2667C0.5 15.5333 0.566667 15.7778 0.7 16L6.76667 10L0.7 4ZM13.4333 10.8L12.5667 11.6667C11.9889 12.2444 11.3 12.5333 10.5 12.5333C9.7 12.5333 9.01111 12.2444 8.43333 11.6667L7.56667 10.8L1.5 16.8667C1.76667 16.9556 2.01111 17 2.23333 17H18.7667C18.9889 17 19.2333 16.9556 19.5 16.8667L13.4333 10.8Z" fill="#C2F15E"/>
</g>
<defs>
<clipPath id="clip0_792_96">
<rect width="20" height="20" fill="white" transform="matrix(1 0 0 -1 0.5 20)"/>
</clipPath>
</defs>
</svg>
