<svg width="41" height="41" viewBox="0 0 41 41" fill="none" xmlns="http://www.w3.org/2000/svg">
<g clip-path="url(#clip0_792_1202)">
<path d="M32.5 1.03125H8.5C4.63401 1.03125 1.5 4.16526 1.5 8.03125V32.0312C1.5 35.8972 4.63401 39.0312 8.5 39.0312H32.5C36.366 39.0312 39.5 35.8972 39.5 32.0312V8.03125C39.5 4.16526 36.366 1.03125 32.5 1.03125Z" fill="white"/>
<path d="M32.5 1.03125H8.5C4.63401 1.03125 1.5 4.16526 1.5 8.03125V32.0312C1.5 35.8972 4.63401 39.0312 8.5 39.0312H32.5C36.366 39.0312 39.5 35.8972 39.5 32.0312V8.03125C39.5 4.16526 36.366 1.03125 32.5 1.03125Z" stroke="url(#paint0_linear_792_1202)" stroke-width="2"/>
<path d="M12.5 26.0312V25.8312C12.5 24.1512 12.5 23.3113 12.827 22.6693C13.1146 22.1048 13.5735 21.6459 14.138 21.3582C14.78 21.0312 15.62 21.0312 17.3 21.0312H23.7C25.38 21.0312 26.22 21.0312 26.862 21.3582C27.4265 21.6459 27.8854 22.1048 28.173 22.6693C28.5 23.3113 28.5 24.1512 28.5 25.8312V26.0312M12.5 26.0312C11.9696 26.0312 11.4609 26.242 11.0858 26.617C10.7107 26.9921 10.5 27.5008 10.5 28.0312C10.5 28.5617 10.7107 29.0704 11.0858 29.4455C11.4609 29.8205 11.9696 30.0312 12.5 30.0312C13.0304 30.0312 13.5391 29.8205 13.9142 29.4455C14.2893 29.0704 14.5 28.5617 14.5 28.0312C14.5 27.5008 14.2893 26.9921 13.9142 26.617C13.5391 26.242 13.0304 26.0312 12.5 26.0312ZM28.5 26.0312C27.9696 26.0312 27.4609 26.242 27.0858 26.617C26.7107 26.9921 26.5 27.5008 26.5 28.0312C26.5 28.5617 26.7107 29.0704 27.0858 29.4455C27.4609 29.8205 27.9696 30.0312 28.5 30.0312C29.0304 30.0312 29.5391 29.8205 29.9142 29.4455C30.2893 29.0704 30.5 28.5617 30.5 28.0312C30.5 27.5008 30.2893 26.9921 29.9142 26.617C29.5391 26.242 29.0304 26.0312 28.5 26.0312ZM20.5 26.0312C19.9696 26.0312 19.4609 26.242 19.0858 26.617C18.7107 26.9921 18.5 27.5008 18.5 28.0312C18.5 28.5617 18.7107 29.0704 19.0858 29.4455C19.4609 29.8205 19.9696 30.0312 20.5 30.0312C21.0304 30.0312 21.5391 29.8205 21.9142 29.4455C22.2893 29.0704 22.5 28.5617 22.5 28.0312C22.5 27.5008 22.2893 26.9921 21.9142 26.617C21.5391 26.242 21.0304 26.0312 20.5 26.0312ZM20.5 26.0312V16.0312M14.5 16.0312H26.5C27.432 16.0312 27.898 16.0312 28.265 15.8792C28.5078 15.7787 28.7284 15.6314 28.9143 15.4455C29.1001 15.2597 29.2475 15.0391 29.348 14.7963C29.5 14.4293 29.5 13.9632 29.5 13.0312C29.5 12.0993 29.5 11.6332 29.348 11.2662C29.2475 11.0234 29.1001 10.8028 28.9143 10.617C28.7284 10.4311 28.5078 10.2838 28.265 10.1833C27.898 10.0313 27.432 10.0312 26.5 10.0312H14.5C13.568 10.0312 13.102 10.0313 12.735 10.1833C12.4922 10.2838 12.2716 10.4311 12.0857 10.617C11.8999 10.8028 11.7525 11.0234 11.652 11.2662C11.5 11.6332 11.5 12.0993 11.5 13.0312C11.5 13.9632 11.5 14.4293 11.652 14.7963C11.7525 15.0391 11.8999 15.2597 12.0857 15.4455C12.2716 15.6314 12.4922 15.7787 12.735 15.8792C13.102 16.0312 13.568 16.0312 14.5 16.0312Z" stroke="url(#paint1_linear_792_1202)" stroke-width="2" stroke-linecap="round" stroke-linejoin="round"/>
</g>
<defs>
<linearGradient id="paint0_linear_792_1202" x1="20.5" y1="0.03125" x2="20.5" y2="40.0313" gradientUnits="userSpaceOnUse">
<stop stop-color="#FE5B25"/>
<stop offset="1" stop-color="#FFDB69"/>
</linearGradient>
<linearGradient id="paint1_linear_792_1202" x1="10.5" y1="10.0313" x2="30.5" y2="31.5312" gradientUnits="userSpaceOnUse">
<stop stop-color="#FFD968"/>
<stop offset="1" stop-color="#FE5F27"/>
</linearGradient>
<clipPath id="clip0_792_1202">
<rect width="40" height="40" fill="white" transform="translate(0.5 0.03125)"/>
</clipPath>
</defs>
</svg>
