<svg width="41" height="41" viewBox="0 0 41 41" fill="none" xmlns="http://www.w3.org/2000/svg">
<g clip-path="url(#clip0_792_1220)">
<path d="M32.8301 1.03125H8.83008C4.96408 1.03125 1.83008 4.16526 1.83008 8.03125V32.0312C1.83008 35.8972 4.96408 39.0312 8.83008 39.0312H32.8301C36.6961 39.0312 39.8301 35.8972 39.8301 32.0312V8.03125C39.8301 4.16526 36.6961 1.03125 32.8301 1.03125Z" fill="white"/>
<path d="M32.8301 1.03125H8.83008C4.96408 1.03125 1.83008 4.16526 1.83008 8.03125V32.0312C1.83008 35.8972 4.96408 39.0312 8.83008 39.0312H32.8301C36.6961 39.0312 39.8301 35.8972 39.8301 32.0312V8.03125C39.8301 4.16526 36.6961 1.03125 32.8301 1.03125Z" stroke="url(#paint0_linear_792_1220)" stroke-width="2"/>
<mask id="mask0_792_1220" style="mask-type:luminance" maskUnits="userSpaceOnUse" x="5" y="1" width="35" height="34">
<path d="M5.83008 18.0012L22.8001 1.03125L39.7711 18.0012L22.8011 34.9723L5.83008 18.0012Z" fill="white"/>
</mask>
<g mask="url(#mask0_792_1220)">
<path d="M21.7401 19.0607L17.8521 22.9507M17.9981 23.2157L21.2781 29.7987C21.5361 30.3157 21.6651 30.5747 21.8311 30.6477C21.9023 30.6788 21.9797 30.693 22.0573 30.689C22.1349 30.685 22.2105 30.663 22.2781 30.6247C22.4351 30.5357 22.5381 30.2657 22.7431 29.7247L29.2421 12.5917C29.4421 12.0637 29.5421 11.8007 29.4851 11.6307C29.4605 11.5577 29.4194 11.4914 29.3649 11.4369C29.3104 11.3824 29.2441 11.3413 29.1711 11.3167C29.0011 11.2597 28.7381 11.3597 28.2111 11.5597L11.0701 18.0597C10.5311 18.2647 10.2621 18.3667 10.1731 18.5237C10.135 18.5911 10.1131 18.6665 10.1091 18.7439C10.1051 18.8214 10.1191 18.8986 10.1501 18.9697C10.2231 19.1357 10.4801 19.2647 10.9951 19.5227L17.6411 22.8567C17.7291 22.9007 17.7731 22.9227 17.8111 22.9527C17.8452 22.9786 17.8758 23.0089 17.9021 23.0427C17.9321 23.0827 17.9541 23.1267 17.9981 23.2147V23.2157Z" stroke="url(#paint1_linear_792_1220)" stroke-width="2" stroke-linecap="round" stroke-linejoin="round"/>
</g>
</g>
<defs>
<linearGradient id="paint0_linear_792_1220" x1="20.8301" y1="0.03125" x2="20.8301" y2="40.0313" gradientUnits="userSpaceOnUse">
<stop stop-color="#FE5B25"/>
<stop offset="1" stop-color="#FFDB69"/>
</linearGradient>
<linearGradient id="paint1_linear_792_1220" x1="16.6111" y1="12.0727" x2="28.7281" y2="24.1897" gradientUnits="userSpaceOnUse">
<stop stop-color="#FFD968"/>
<stop offset="1" stop-color="#FE5B25"/>
</linearGradient>
<clipPath id="clip0_792_1220">
<rect width="40" height="40" fill="white" transform="translate(0.830078 0.03125)"/>
</clipPath>
</defs>
</svg>
