<svg width="41" height="41" viewBox="0 0 41 41" fill="none" xmlns="http://www.w3.org/2000/svg">
<g clip-path="url(#clip0_792_1233)">
<path d="M32.5 1.41016H8.5C4.63401 1.41016 1.5 4.54416 1.5 8.41016V32.4102C1.5 36.2761 4.63401 39.4102 8.5 39.4102H32.5C36.366 39.4102 39.5 36.2761 39.5 32.4102V8.41016C39.5 4.54416 36.366 1.41016 32.5 1.41016Z" fill="white"/>
<path d="M32.5 1.41016H8.5C4.63401 1.41016 1.5 4.54416 1.5 8.41016V32.4102C1.5 36.2761 4.63401 39.4102 8.5 39.4102H32.5C36.366 39.4102 39.5 36.2761 39.5 32.4102V8.41016C39.5 4.54416 36.366 1.41016 32.5 1.41016Z" stroke="url(#paint0_linear_792_1233)" stroke-width="2"/>
<path d="M28.5001 28.4113V21.4113M20.5001 28.4113V18.4113M12.5001 28.4113V24.4113M21.9071 13.4383L27.0751 15.3773M19.3001 13.8113L13.7001 18.0113M29.5601 14.8513C29.7058 14.9891 29.8223 15.1547 29.9028 15.3383C29.9833 15.5219 30.0262 15.7198 30.029 15.9202C30.0317 16.1207 29.9942 16.3197 29.9188 16.5055C29.8433 16.6912 29.7313 16.8599 29.5895 17.0017C29.4477 17.1434 29.279 17.2553 29.0932 17.3307C28.9074 17.4061 28.7084 17.4434 28.5079 17.4406C28.3074 17.4378 28.1096 17.3948 27.926 17.3142C27.7424 17.2335 27.5769 17.1169 27.4391 16.9713C27.166 16.6882 27.015 16.3092 27.0186 15.916C27.0222 15.5227 27.1802 15.1465 27.4584 14.8685C27.7366 14.5905 28.1129 14.433 28.5062 14.4297C28.8995 14.4265 29.2784 14.5779 29.5611 14.8513H29.5601ZM13.5601 17.8513C13.7058 17.9891 13.8223 18.1547 13.9028 18.3383C13.9833 18.5219 14.0262 18.7198 14.029 18.9202C14.0317 19.1207 13.9942 19.3197 13.9188 19.5055C13.8433 19.6912 13.7313 19.8599 13.5895 20.0017C13.4477 20.1434 13.279 20.2553 13.0932 20.3307C12.9074 20.4061 12.7084 20.4434 12.5079 20.4406C12.3074 20.4378 12.1096 20.3948 11.926 20.3142C11.7424 20.2335 11.5769 20.1169 11.4391 19.9713C11.166 19.6882 11.015 19.3092 11.0186 18.916C11.0222 18.5227 11.1802 18.1465 11.4584 17.8685C11.7366 17.5905 12.1129 17.433 12.5062 17.4297C12.8995 17.4265 13.2774 17.5779 13.5601 17.8513ZM21.5601 11.8513C21.7058 11.9891 21.8223 12.1547 21.9028 12.3383C21.9833 12.5219 22.0262 12.7198 22.029 12.9203C22.0317 13.1207 21.9942 13.3197 21.9188 13.5055C21.8433 13.6912 21.7313 13.8599 21.5895 14.0017C21.4477 14.1434 21.279 14.2553 21.0932 14.3307C20.9074 14.4061 20.7084 14.4434 20.5079 14.4406C20.3074 14.4378 20.1096 14.3948 19.926 14.3142C19.7424 14.2335 19.5769 14.1169 19.4391 13.9713C19.166 13.6882 19.015 13.3092 19.0186 12.916C19.0222 12.5227 19.1802 12.1465 19.4584 11.8685C19.7366 11.5905 20.1129 11.433 20.5062 11.4297C20.8995 11.4265 21.2784 11.5779 21.5611 11.8513H21.5601Z" stroke="url(#paint1_linear_792_1233)" stroke-width="2" stroke-linecap="round" stroke-linejoin="round"/>
</g>
<defs>
<linearGradient id="paint0_linear_792_1233" x1="20.5" y1="0.410156" x2="20.5" y2="40.4102" gradientUnits="userSpaceOnUse">
<stop stop-color="#FE5B25"/>
<stop offset="1" stop-color="#FFDB69"/>
</linearGradient>
<linearGradient id="paint1_linear_792_1233" x1="13.5001" y1="14.9113" x2="28.5001" y2="30.9113" gradientUnits="userSpaceOnUse">
<stop stop-color="#FFD968"/>
<stop offset="0.573" stop-color="#FE5B25"/>
<stop offset="1" stop-color="#FE5B25"/>
</linearGradient>
<clipPath id="clip0_792_1233">
<rect width="40" height="40" fill="white" transform="translate(0.5 0.410156)"/>
</clipPath>
</defs>
</svg>
