<svg width="41" height="41" viewBox="0 0 41 41" fill="none" xmlns="http://www.w3.org/2000/svg">
<g clip-path="url(#clip0_792_1251)">
<path d="M32.8301 1.41016H8.83008C4.96408 1.41016 1.83008 4.54416 1.83008 8.41016V32.4102C1.83008 36.2761 4.96408 39.4102 8.83008 39.4102H32.8301C36.6961 39.4102 39.8301 36.2761 39.8301 32.4102V8.41016C39.8301 4.54416 36.6961 1.41016 32.8301 1.41016Z" fill="white"/>
<path d="M32.8301 1.41016H8.83008C4.96408 1.41016 1.83008 4.54416 1.83008 8.41016V32.4102C1.83008 36.2761 4.96408 39.4102 8.83008 39.4102H32.8301C36.6961 39.4102 39.8301 36.2761 39.8301 32.4102V8.41016C39.8301 4.54416 36.6961 1.41016 32.8301 1.41016Z" stroke="url(#paint0_linear_792_1251)" stroke-width="2"/>
<path d="M10.8301 22.4111C10.8301 22.4111 10.9511 23.2611 14.4661 26.7751C15.6035 27.9128 17.0251 28.7249 18.5829 29.1267C20.1407 29.5285 21.7778 29.5055 23.3236 29.0599C24.8695 28.6143 26.2676 27.7625 27.3725 26.5932C28.4775 25.4238 29.2487 23.9797 29.6061 22.4111M10.8301 22.4111V28.4111M10.8301 22.4111H16.8301M30.8301 18.4111C30.8301 18.4111 30.7091 17.5611 27.1941 14.0471C26.0566 12.9093 24.635 12.0973 23.0772 11.6954C21.5194 11.2936 19.8824 11.3167 18.3365 11.7622C16.7907 12.2078 15.3925 13.0596 14.2876 14.229C13.1827 15.3983 12.4114 16.8425 12.0541 18.4111M30.8301 18.4111V12.4111M30.8301 18.4111H24.8301" stroke="url(#paint1_linear_792_1251)" stroke-width="2" stroke-linecap="round" stroke-linejoin="round"/>
</g>
<defs>
<linearGradient id="paint0_linear_792_1251" x1="20.8301" y1="0.410156" x2="20.8301" y2="40.4102" gradientUnits="userSpaceOnUse">
<stop stop-color="#FE5B25"/>
<stop offset="1" stop-color="#FFDB69"/>
</linearGradient>
<linearGradient id="paint1_linear_792_1251" x1="15.3301" y1="12.9111" x2="28.3301" y2="29.4111" gradientUnits="userSpaceOnUse">
<stop stop-color="#FFD968"/>
<stop offset="1" stop-color="#FE5B25"/>
</linearGradient>
<clipPath id="clip0_792_1251">
<rect width="40" height="40" fill="white" transform="translate(0.830078 0.410156)"/>
</clipPath>
</defs>
</svg>
