<svg width="24" height="25" viewBox="0 0 24 25" fill="none" xmlns="http://www.w3.org/2000/svg">
<path fill-rule="evenodd" clip-rule="evenodd" d="M12.057 2.33984C14.247 2.33984 15.969 2.33984 17.312 2.51984C18.689 2.70584 19.781 3.09284 20.639 3.94984C21.497 4.80984 21.884 5.90084 22.069 7.27784C22.25 8.62084 22.25 10.3418 22.25 12.5328V12.6468C22.25 14.8368 22.25 16.5588 22.07 17.9018C21.884 19.2788 21.497 20.3708 20.64 21.2288C19.78 22.0868 18.689 22.4738 17.312 22.6588C15.969 22.8398 14.248 22.8398 12.057 22.8398H11.943C9.753 22.8398 8.031 22.8398 6.688 22.6598C5.311 22.4738 4.219 22.0868 3.361 21.2298C2.503 20.3698 2.116 19.2788 1.931 17.9018C1.75 16.5588 1.75 14.8378 1.75 12.6468V12.5328C1.75 10.3428 1.75 8.62084 1.93 7.27784C2.116 5.90084 2.503 4.80884 3.36 3.95084C4.22 3.09284 5.311 2.70584 6.688 2.52084C8.031 2.33984 9.752 2.33984 11.943 2.33984H12.057ZM7 15.8398C7.19891 15.8398 7.38968 15.9189 7.53033 16.0595C7.67098 16.2002 7.75 16.3909 7.75 16.5898V18.5898C7.75 18.7888 7.67098 18.9795 7.53033 19.1202C7.38968 19.2608 7.19891 19.3398 7 19.3398C6.80109 19.3398 6.61032 19.2608 6.46967 19.1202C6.32902 18.9795 6.25 18.7888 6.25 18.5898V16.5898C6.25 16.3909 6.32902 16.2002 6.46967 16.0595C6.61032 15.9189 6.80109 15.8398 7 15.8398ZM12.75 15.5898C12.75 15.3909 12.671 15.2002 12.5303 15.0595C12.3897 14.9189 12.1989 14.8398 12 14.8398C11.8011 14.8398 11.6103 14.9189 11.4697 15.0595C11.329 15.2002 11.25 15.3909 11.25 15.5898V18.5898C11.25 18.7888 11.329 18.9795 11.4697 19.1202C11.6103 19.2608 11.8011 19.3398 12 19.3398C12.1989 19.3398 12.3897 19.2608 12.5303 19.1202C12.671 18.9795 12.75 18.7888 12.75 18.5898V15.5898ZM17 12.8398C17.1989 12.8398 17.3897 12.9189 17.5303 13.0595C17.671 13.2002 17.75 13.3909 17.75 13.5898V18.5898C17.75 18.7888 17.671 18.9795 17.5303 19.1202C17.3897 19.2608 17.1989 19.3398 17 19.3398C16.8011 19.3398 16.6103 19.2608 16.4697 19.1202C16.329 18.9795 16.25 18.7888 16.25 18.5898V13.5898C16.25 13.3909 16.329 13.2002 16.4697 13.0595C16.6103 12.9189 16.8011 12.8398 17 12.8398ZM15.859 5.84184C16.09 5.83184 16.369 5.85284 16.645 6.00984C16.93 6.17184 17.089 6.40984 17.189 6.63084C17.271 6.81284 17.335 7.03584 17.393 7.23884L17.403 7.27284L17.721 8.38284C17.7482 8.47753 17.7565 8.57664 17.7453 8.67452C17.7342 8.77239 17.7039 8.86712 17.6562 8.9533C17.6085 9.03947 17.5442 9.1154 17.4672 9.17675C17.3901 9.23809 17.3017 9.28366 17.207 9.31084C17.1123 9.33803 17.0132 9.3463 16.9153 9.33518C16.8175 9.32406 16.7227 9.29377 16.6365 9.24604C16.5504 9.19831 16.4744 9.13407 16.4131 9.057C16.3517 8.97993 16.3062 8.89153 16.279 8.79684L16.132 8.28384C13.9 11.4958 10.322 12.8398 6 12.8398C5.80109 12.8398 5.61032 12.7608 5.46967 12.6202C5.32902 12.4795 5.25 12.2888 5.25 12.0898C5.25 11.8909 5.32902 11.7002 5.46967 11.5595C5.61032 11.4189 5.80109 11.3398 6 11.3398C9.953 11.3398 12.963 10.1478 14.846 7.50484L14.122 7.62484C13.9263 7.65604 13.7261 7.60848 13.5653 7.49256C13.4045 7.37664 13.2962 7.20177 13.2639 7.00619C13.2317 6.81062 13.2782 6.61022 13.3932 6.44882C13.5083 6.28742 13.6826 6.17813 13.878 6.14484L15.146 5.93484L15.179 5.92984C15.416 5.89084 15.655 5.85184 15.859 5.84184Z" fill="#0B0707"/>
</svg>
