<svg width="24" height="24" viewBox="0 0 24 24" fill="none" xmlns="http://www.w3.org/2000/svg">
<path fill-rule="evenodd" clip-rule="evenodd" d="M6.188 2.25V5.114C6.188 8.277 8.79 10.841 12 10.841C15.21 10.841 17.813 8.277 17.813 5.114V2.25H19.75V5.114C19.75 9.331 16.28 12.75 12 12.75C7.72 12.75 4.25 9.331 4.25 5.114V2.25H6.188Z" fill="#0B0707"/>
<path d="M4.25 21.75H19.75V18.886C19.75 14.669 16.28 11.25 12 11.25C7.72 11.25 4.25 14.669 4.25 18.886V21.75Z" fill="#0B0707"/>
<path fill-rule="evenodd" clip-rule="evenodd" d="M3 2C3 1.73478 3.10536 1.48043 3.29289 1.29289C3.48043 1.10536 3.73478 1 4 1H20C20.2652 1 20.5196 1.10536 20.7071 1.29289C20.8946 1.48043 21 1.73478 21 2C21 2.26522 20.8946 2.51957 20.7071 2.70711C20.5196 2.89464 20.2652 3 20 3H4C3.73478 3 3.48043 2.89464 3.29289 2.70711C3.10536 2.51957 3 2.26522 3 2ZM3 22C3 21.7348 3.10536 21.4804 3.29289 21.2929C3.48043 21.1054 3.73478 21 4 21H20C20.2652 21 20.5196 21.1054 20.7071 21.2929C20.8946 21.4804 21 21.7348 21 22C21 22.2652 20.8946 22.5196 20.7071 22.7071C20.5196 22.8946 20.2652 23 20 23H4C3.73478 23 3.48043 22.8946 3.29289 22.7071C3.10536 22.5196 3 22.2652 3 22Z" fill="#0B0707"/>
</svg>
