<svg width="24" height="25" viewBox="0 0 24 25" fill="none" xmlns="http://www.w3.org/2000/svg">
<g clip-path="url(#clip0_792_1624)">
<g clip-path="url(#clip1_792_1624)">
<path d="M14.2519 2.76172H8.49488C8.31488 2.76172 8.22488 2.76172 8.14588 2.78872C8.07606 2.81315 8.01253 2.85277 7.95988 2.90472C7.89988 2.96272 7.85988 3.04372 7.77988 3.20472L3.57988 11.6047C3.38788 11.9877 3.29188 12.1787 3.31488 12.3347C3.32477 12.4021 3.34832 12.4667 3.38409 12.5247C3.41986 12.5826 3.46709 12.6327 3.52288 12.6717C3.65188 12.7617 3.86588 12.7617 4.29488 12.7617H10.4999L7.49988 22.7617L19.6949 10.1167C20.1049 9.69072 20.3119 9.47672 20.3239 9.29472C20.329 9.21651 20.3156 9.13821 20.2848 9.06612C20.2541 8.99403 20.2068 8.93018 20.1469 8.87972C20.0069 8.76172 19.7109 8.76172 19.1199 8.76172H12.0029L14.2529 2.76172H14.2519Z" stroke="white" stroke-width="2" stroke-linecap="round" stroke-linejoin="round"/>
</g>
</g>
<defs>
<clipPath id="clip0_792_1624">
<rect width="24" height="24" fill="white" transform="translate(0 0.761719)"/>
</clipPath>
<clipPath id="clip1_792_1624">
<rect width="24" height="24" fill="white" transform="translate(0 0.761719)"/>
</clipPath>
</defs>
</svg>
