<svg width="24" height="25" viewBox="0 0 24 25" fill="none" xmlns="http://www.w3.org/2000/svg">
<g clip-path="url(#clip0_792_1607)">
<g clip-path="url(#clip1_792_1607)">
<path d="M7.391 3.23072C7.564 3.05772 7.651 2.97072 7.751 2.90872C7.84075 2.8537 7.93862 2.81321 8.041 2.78872C8.156 2.76172 8.278 2.76172 8.523 2.76172H15.477C15.722 2.76172 15.844 2.76172 15.959 2.78972C16.0614 2.81421 16.1593 2.8547 16.249 2.90972C16.349 2.97072 16.436 3.05772 16.609 3.22972L21.531 8.15272C21.704 8.32572 21.791 8.41272 21.853 8.51272C21.907 8.60272 21.948 8.70072 21.973 8.80272C22 8.91772 22 9.03972 22 9.28472V16.2387C22 16.4837 22 16.6057 21.972 16.7207C21.9475 16.8231 21.907 16.921 21.852 17.0107C21.791 17.1107 21.704 17.1977 21.532 17.3707L16.609 22.2927C16.436 22.4657 16.349 22.5527 16.249 22.6147C16.1593 22.6698 16.0614 22.7103 15.959 22.7347C15.844 22.7617 15.722 22.7617 15.477 22.7617H8.523C8.278 22.7617 8.156 22.7617 8.041 22.7337C7.93861 22.7093 7.84073 22.6688 7.751 22.6137C7.651 22.5527 7.564 22.4657 7.391 22.2937L2.47 17.3697C2.297 17.1967 2.21 17.1097 2.148 17.0097C2.09299 16.92 2.05249 16.8221 2.028 16.7197C2 16.6057 2 16.4837 2 16.2387V9.28472C2 9.03972 2 8.91772 2.028 8.80272C2.05249 8.70034 2.09299 8.60247 2.148 8.51272C2.209 8.41272 2.296 8.32572 2.468 8.15272L7.392 3.23172L7.391 3.23072Z" stroke="white" stroke-width="2" stroke-linecap="round" stroke-linejoin="round"/>
<path d="M11.9972 9.8297C10.9972 8.6607 9.33019 8.3467 8.07719 9.4167C6.82519 10.4867 6.64819 12.2767 7.63219 13.5417C8.26219 14.3517 9.87619 15.8557 10.9542 16.8317C11.3132 17.1567 11.4922 17.3187 11.7072 17.3837C11.8912 17.4397 12.1022 17.4397 12.2872 17.3837C12.5012 17.3187 12.6802 17.1567 13.0392 16.8317C14.1182 15.8557 15.7312 14.3517 16.3612 13.5417C17.3452 12.2767 17.1902 10.4757 15.9162 9.4167C14.6422 8.3577 12.9972 8.6607 11.9972 9.8297Z" stroke="white" stroke-width="2" stroke-linecap="round" stroke-linejoin="round"/>
</g>
</g>
<defs>
<clipPath id="clip0_792_1607">
<rect width="24" height="24" fill="white" transform="translate(0 0.761719)"/>
</clipPath>
<clipPath id="clip1_792_1607">
<rect width="24" height="24" fill="white" transform="translate(0 0.761719)"/>
</clipPath>
</defs>
</svg>
