<svg width="32" height="32" viewBox="0 0 32 32" fill="none" xmlns="http://www.w3.org/2000/svg">
<path d="M16.5956 17.8867H14.7017C13.9484 17.8867 13.2259 18.186 12.6933 18.7186C12.1606 19.2513 11.8613 19.9738 11.8613 20.7271V25.4623C11.8613 26.2157 12.1606 26.9381 12.6933 27.4708C13.2259 28.0035 13.9484 28.3027 14.7017 28.3027H16.5956C17.3489 28.3027 18.0714 28.0035 18.6041 27.4708C19.1367 26.9381 19.436 26.2157 19.436 25.4623V20.7271C19.436 19.9738 19.1367 19.2513 18.6041 18.7186C18.0714 18.186 17.3489 17.8867 16.5956 17.8867Z" fill="#F44336"/>
<path d="M26.0663 11.2539H24.1724C23.4191 11.2539 22.6966 11.5532 22.164 12.0858C21.6313 12.6185 21.332 13.341 21.332 14.0943V25.4577C21.3319 25.8308 21.4053 26.2003 21.548 26.545C21.6906 26.8897 21.8999 27.2029 22.1636 27.4668C22.4274 27.7306 22.7405 27.94 23.0852 28.0828C23.4299 28.2256 23.7993 28.2991 24.1724 28.2991H26.0663C26.4395 28.2992 26.809 28.2258 27.1538 28.083C27.4986 27.9403 27.8119 27.731 28.0757 27.4671C28.3396 27.2033 28.5489 26.89 28.6916 26.5452C28.8344 26.2004 28.9078 25.8309 28.9077 25.4577V14.0943C28.9077 13.7212 28.8342 13.3518 28.6914 13.0071C28.5486 12.6624 28.3392 12.3493 28.0754 12.0855C27.8115 11.8217 27.4983 11.6125 27.1536 11.4698C26.8089 11.3272 26.4394 11.2538 26.0663 11.2539Z" fill="#0D6EFC"/>
<path d="M7.12589 14.0977H5.23392C4.86084 14.0975 4.49138 14.1709 4.14666 14.3136C3.80194 14.4563 3.4887 14.6655 3.22485 14.9292C2.96099 15.193 2.75168 15.5062 2.60888 15.8508C2.46608 16.1955 2.39258 16.5649 2.39258 16.938V25.4601C2.39245 25.8333 2.46586 26.2028 2.6086 26.5476C2.75135 26.8924 2.96064 27.2057 3.2245 27.4695C3.48837 27.7334 3.80165 27.9427 4.14644 28.0854C4.49122 28.2282 4.86076 28.3016 5.23392 28.3015H7.12589C7.49898 28.3015 7.86841 28.228 8.21308 28.0852C8.55775 27.9424 8.87092 27.7331 9.13468 27.4692C9.39845 27.2053 9.60765 26.8921 9.75033 26.5474C9.89302 26.2027 9.96639 25.8332 9.96627 25.4601V16.938C9.96627 16.1847 9.66701 15.4623 9.13434 14.9296C8.60167 14.3969 7.87921 14.0977 7.12589 14.0977Z" fill="#FFC107"/>
<path d="M15.6472 14.0964C15.5272 14.0969 15.4082 14.0745 15.2965 14.0305L5.82794 10.2427C5.59439 10.1498 5.40731 9.96799 5.30784 9.73717C5.20837 9.50635 5.20467 9.24547 5.29755 9.01192C5.39043 8.77838 5.57228 8.59129 5.8031 8.49182C6.03392 8.39236 6.2948 8.38865 6.52835 8.48153L15.4864 12.0611L24.5297 4.83613C24.7261 4.68542 24.9738 4.61771 25.2196 4.64751C25.4655 4.67731 25.6898 4.80226 25.8446 4.99555C25.9993 5.18884 26.0722 5.43508 26.0475 5.68146C26.0228 5.92783 25.9025 6.15473 25.7125 6.31347L16.2439 13.8891C16.0746 14.0245 15.864 14.0977 15.6472 14.0964Z" fill="#0B0707"/>
<path d="M25.1171 7.4675C24.6148 7.4675 24.1331 7.26796 23.7779 6.91279C23.4228 6.55761 23.2232 6.07589 23.2232 5.57359C23.2232 5.0713 23.4228 4.58958 23.7779 4.2344C24.1331 3.87922 24.6148 3.67969 25.1171 3.67969C25.6194 3.67969 26.1012 3.87922 26.4563 4.2344C26.8115 4.58958 27.011 5.0713 27.011 5.57359C27.011 6.07589 26.8115 6.55761 26.4563 6.91279C26.1012 7.26796 25.6194 7.4675 25.1171 7.4675ZM15.6447 15.0431C15.1424 15.0431 14.6607 14.8436 14.3055 14.4884C13.9503 14.1332 13.7508 13.6515 13.7508 13.1492C13.7508 12.6469 13.9503 12.1652 14.3055 11.81C14.6607 11.4548 15.1424 11.2553 15.6447 11.2553C16.147 11.2553 16.6287 11.4548 16.9839 11.81C17.3391 12.1652 17.5386 12.6469 17.5386 13.1492C17.5386 13.6515 17.3391 14.1332 16.9839 14.4884C16.6287 14.8436 16.147 15.0431 15.6447 15.0431ZM6.17711 11.2553C5.67481 11.2553 5.19309 11.0558 4.83792 10.7006C4.48274 10.3454 4.2832 9.8637 4.2832 9.36141C4.2832 8.85911 4.48274 8.37739 4.83792 8.02221C5.19309 7.66704 5.67481 7.4675 6.17711 7.4675C6.6794 7.4675 7.16113 7.66704 7.5163 8.02221C7.87148 8.37739 8.07102 8.85911 8.07102 9.36141C8.07102 9.8637 7.87148 10.3454 7.5163 10.7006C7.16113 11.0558 6.6794 11.2553 6.17711 11.2553Z" fill="#0D6EFC"/>
</svg>
