<svg width="47" height="47" viewBox="0 0 47 47" fill="none" xmlns="http://www.w3.org/2000/svg">
<rect width="47" height="47" rx="12" fill="#009FEB"/>
<path d="M23.5 30.5C27.366 30.5 30.5 27.366 30.5 23.5C30.5 19.634 27.366 16.5 23.5 16.5C19.634 16.5 16.5 19.634 16.5 23.5C16.5 27.366 19.634 30.5 23.5 30.5Z" stroke="white" stroke-width="2" stroke-linecap="round" stroke-linejoin="round"/>
<path d="M23.5 20.5V23.5L25 25" stroke="white" stroke-width="2" stroke-linecap="round" stroke-linejoin="round"/>
<path d="M28.0105 28.85L27.6605 32.68C27.6154 33.1787 27.385 33.6423 27.0147 33.9792C26.6444 34.3162 26.1611 34.502 25.6605 34.5H21.3305C20.8298 34.502 20.3466 34.3162 19.9763 33.9792C19.606 33.6423 19.3755 33.1787 19.3305 32.68L18.9805 28.85M18.9905 18.15L19.3405 14.32C19.3854 13.8231 19.6144 13.3609 19.9826 13.0242C20.3508 12.6874 20.8315 12.5005 21.3305 12.5H25.6805C26.1811 12.498 26.6644 12.6838 27.0347 13.0208C27.405 13.3578 27.6354 13.8214 27.6805 14.32L28.0305 18.15" stroke="white" stroke-width="2" stroke-linecap="round" stroke-linejoin="round"/>
</svg>
