<svg width="32" height="32" viewBox="0 0 32 32" fill="none" xmlns="http://www.w3.org/2000/svg">
<path d="M16.968 17.3086H15.029C14.2583 17.3086 13.5192 17.6148 12.9742 18.1597C12.4292 18.7047 12.123 19.4439 12.123 20.2146V26.9956C12.1229 27.3773 12.198 27.7553 12.344 28.108C12.4899 28.4607 12.704 28.7811 12.9738 29.0511C13.2437 29.321 13.5641 29.5352 13.9167 29.6813C14.2694 29.8274 14.6473 29.9026 15.029 29.9026H16.967C17.3488 29.9026 17.7267 29.8274 18.0794 29.6813C18.432 29.5352 18.7524 29.321 19.0223 29.0511C19.2921 28.7811 19.5061 28.4607 19.6521 28.108C19.7981 27.7553 19.8732 27.3773 19.873 26.9956V20.2146C19.873 19.4439 19.5669 18.7047 19.0219 18.1597C18.4769 17.6148 17.7388 17.3086 16.968 17.3086Z" fill="#FFC107"/>
<path d="M26.6555 12.4648H24.7195C24.3378 12.4647 23.9598 12.5398 23.6071 12.6858C23.2544 12.8317 22.934 13.0458 22.664 13.3156C22.394 13.5855 22.1799 13.9059 22.0338 14.2585C21.8877 14.6112 21.8125 14.9891 21.8125 15.3708V26.9958C21.8124 27.3776 21.8875 27.7557 22.0335 28.1085C22.1796 28.4612 22.3937 28.7817 22.6636 29.0517C22.9336 29.3217 23.2541 29.5358 23.6069 29.6818C23.9596 29.8279 24.3377 29.903 24.7195 29.9028H26.6565C27.0383 29.903 27.4164 29.8279 27.7691 29.6818C28.1219 29.5358 28.4424 29.3217 28.7124 29.0517C28.9823 28.7817 29.1964 28.4612 29.3425 28.1085C29.4885 27.7557 29.5636 27.3776 29.5635 26.9958V15.3708C29.5635 14.9891 29.4883 14.6112 29.3422 14.2585C29.1961 13.9059 28.982 13.5855 28.712 13.3156C28.442 13.0458 28.1216 12.8317 27.7689 12.6858C27.4162 12.5398 27.0372 12.4647 26.6555 12.4648Z" fill="#0D6EFC"/>
<path d="M7.2815 20.2148H5.3445C4.96279 20.2147 4.5848 20.2898 4.23211 20.4358C3.87943 20.5817 3.55895 20.7958 3.289 21.0656C3.01905 21.3355 2.8049 21.6559 2.6588 22.0085C2.5127 22.3612 2.4375 22.7391 2.4375 23.1208V26.9958C2.43737 27.3776 2.51247 27.7557 2.65851 28.1085C2.80456 28.4612 3.01868 28.7817 3.28865 29.0517C3.55861 29.3217 3.87913 29.5358 4.23188 29.6818C4.58464 29.8279 4.96271 29.903 5.3445 29.9028H7.2805C7.66229 29.903 8.04036 29.8279 8.39312 29.6818C8.74587 29.5358 9.06639 29.3217 9.33635 29.0517C9.60632 28.7817 9.82044 28.4612 9.96649 28.1085C10.1125 27.7557 10.1876 27.3776 10.1875 26.9958V23.1208C10.1875 22.7391 10.1123 22.3612 9.9662 22.0085C9.8201 21.6559 9.60595 21.3355 9.336 21.0656C9.06605 20.7958 8.74557 20.5817 8.39289 20.4358C8.0402 20.2898 7.66321 20.2147 7.2815 20.2148Z" fill="#F44336"/>
<path d="M28.5945 2.77834H23.7505C23.499 2.78643 23.2606 2.89201 23.0855 3.07275C22.9105 3.2535 22.8126 3.49524 22.8126 3.74684C22.8126 3.99845 22.9105 4.24019 23.0855 4.42094C23.2606 4.60168 23.499 4.70726 23.7505 4.71534H26.3855C23.7509 8.02857 20.4047 10.7066 16.5947 12.5512C12.7847 14.3958 8.60852 15.3596 4.3755 15.3713H3.4065C3.14951 15.3713 2.90304 15.4734 2.72131 15.6552C2.53959 15.8369 2.4375 16.0833 2.4375 16.3403C2.4375 16.5973 2.53959 16.8438 2.72131 17.0255C2.90304 17.2073 3.14951 17.3093 3.4065 17.3093H4.3755C8.82565 17.2978 13.2181 16.3016 17.2378 14.3922C21.2575 12.4828 24.8049 9.70748 27.6255 6.26534V8.59034C27.6255 8.84734 27.7276 9.09381 27.9093 9.27553C28.091 9.45725 28.3375 9.55934 28.5945 9.55934C28.8515 9.55934 29.098 9.45725 29.2797 9.27553C29.4614 9.09381 29.5635 8.84734 29.5635 8.59034V3.74634C29.5635 3.61901 29.5384 3.49292 29.4896 3.37529C29.4409 3.25766 29.3694 3.1508 29.2793 3.0608C29.1892 2.97081 29.0823 2.89946 28.9646 2.85082C28.8469 2.80218 28.7208 2.77721 28.5935 2.77734L28.5945 2.77834Z" fill="#0D6EFC"/>
</svg>
