<svg width="24" height="24" viewBox="0 0 24 24" fill="none" xmlns="http://www.w3.org/2000/svg">
<g clip-path="url(#clip0_792_819)">
<path d="M11 4.5H18.3C19.42 4.5 19.98 4.5 20.408 4.718C20.7843 4.90974 21.0903 5.21569 21.282 5.592C21.5 6.02 21.5 6.58 21.5 7.7V9C21.5 9.932 21.5 10.398 21.348 10.765C21.2475 11.0078 21.1001 11.2284 20.9143 11.4143C20.7284 11.6001 20.5078 11.7475 20.265 11.848C19.898 12 19.432 12 18.5 12M13 19.5H5.7C4.58 19.5 4.02 19.5 3.592 19.282C3.21569 19.0903 2.90974 18.7843 2.718 18.408C2.5 17.98 2.5 17.42 2.5 16.3V15C2.5 14.068 2.5 13.602 2.652 13.235C2.75251 12.9922 2.8999 12.7716 3.08572 12.5857C3.27155 12.3999 3.49218 12.2525 3.735 12.152C4.102 12 4.568 12 5.5 12M10.3 14.5H13.7C13.98 14.5 14.12 14.5 14.227 14.445C14.3208 14.3971 14.3971 14.3208 14.445 14.227C14.5 14.12 14.5 13.98 14.5 13.7V10.3C14.5 10.02 14.5 9.88 14.445 9.773C14.3971 9.67918 14.3208 9.60289 14.227 9.555C14.12 9.5 13.98 9.5 13.7 9.5H10.3C10.02 9.5 9.88 9.5 9.773 9.555C9.67918 9.60289 9.60289 9.67918 9.555 9.773C9.5 9.88 9.5 10.02 9.5 10.3V13.7C9.5 13.98 9.5 14.12 9.555 14.227C9.60289 14.3208 9.67918 14.3971 9.773 14.445C9.88 14.5 10.02 14.5 10.3 14.5ZM17.8 22H21.2C21.48 22 21.62 22 21.727 21.945C21.8208 21.8971 21.8971 21.8208 21.945 21.727C22 21.62 22 21.48 22 21.2V17.8C22 17.52 22 17.38 21.945 17.273C21.8971 17.1792 21.8208 17.1029 21.727 17.055C21.62 17 21.48 17 21.2 17H17.8C17.52 17 17.38 17 17.273 17.055C17.1792 17.1029 17.1029 17.1792 17.055 17.273C17 17.38 17 17.52 17 17.8V21.2C17 21.48 17 21.62 17.055 21.727C17.1029 21.8208 17.1792 21.8971 17.273 21.945C17.38 22 17.52 22 17.8 22ZM2.8 7H6.2C6.48 7 6.62 7 6.727 6.946C6.82097 6.89785 6.89728 6.82119 6.945 6.727C7 6.62 7 6.48 7 6.2V2.8C7 2.52 7 2.38 6.946 2.273C6.89802 2.17866 6.82134 2.10198 6.727 2.054C6.62 2 6.48 2 6.2 2H2.8C2.52 2 2.38 2 2.273 2.054C2.17866 2.10198 2.10198 2.17866 2.054 2.273C2 2.38 2 2.52 2 2.8V6.2C2 6.48 2 6.62 2.054 6.727C2.10215 6.82097 2.17881 6.89728 2.273 6.945C2.38 7 2.52 7 2.8 7Z" stroke="white" stroke-width="2" stroke-linecap="round" stroke-linejoin="round"/>
</g>
<defs>
<clipPath id="clip0_792_819">
<rect width="24" height="24" fill="white"/>
</clipPath>
</defs>
</svg>
