<svg width="24" height="24" viewBox="0 0 24 24" fill="none" xmlns="http://www.w3.org/2000/svg">
<path d="M9.00067 2V4.00031M15.0007 2V4.00031M9.00067 20V22.0003M15.0007 20V22.0003M20.001 8.99969H22.0013M20.001 14H22.0013M2.00098 8.99969H4.00128M2.00098 14H4.00128M8.80128 20H15.201C16.881 20 17.721 20 18.3625 19.6732C18.9269 19.3856 19.3857 18.9268 19.6733 18.3625C20.001 17.72 20.001 16.88 20.001 15.2V8.80031C20.001 7.12031 20.001 6.28031 19.6742 5.63785C19.3866 5.07351 18.9278 4.61467 18.3634 4.32708C17.721 4.00031 16.881 4.00031 15.201 4.00031H8.80128C7.12128 4.00031 6.28128 4.00031 5.63882 4.32708C5.07448 4.61467 4.61565 5.07351 4.32805 5.63785C4.00128 6.27938 4.00128 7.11939 4.00128 8.80031V15.2C4.00128 16.88 4.00128 17.72 4.32805 18.3615C4.61565 18.9259 5.07448 19.3847 5.63882 19.6723C6.28036 20 7.12036 20 8.80128 20ZM10.6013 14.9997H13.401C13.9613 14.9997 14.241 14.9997 14.4551 14.8908C14.6434 14.7948 14.7967 14.6415 14.8917 14.4542C15.0007 14.24 15.0007 13.9603 15.0007 13.4V10.6003C15.0007 10.04 15.0007 9.76031 14.8917 9.54615C14.7961 9.35785 14.6432 9.20468 14.4551 9.10862C14.241 8.99969 13.9613 8.99969 13.401 8.99969H10.6013C10.041 8.99969 9.76128 8.99969 9.54713 9.10862C9.35882 9.20462 9.20559 9.35785 9.10959 9.54615C9.00067 9.76031 9.00067 10.04 9.00067 10.6003V13.4C9.00067 13.9603 9.00067 14.24 9.10959 14.4542C9.20559 14.6425 9.35882 14.7957 9.54713 14.8908C9.76128 14.9997 10.041 14.9997 10.6013 14.9997Z" stroke="white" stroke-width="1.84615" stroke-linecap="round" stroke-linejoin="round"/>
</svg>
