<svg width="25" height="25" viewBox="0 0 25 25" fill="none" xmlns="http://www.w3.org/2000/svg">
<path d="M12.5 19.5C16.366 19.5 19.5 16.366 19.5 12.5C19.5 8.63401 16.366 5.5 12.5 5.5C8.63401 5.5 5.5 8.63401 5.5 12.5C5.5 16.366 8.63401 19.5 12.5 19.5Z" stroke="white" stroke-width="2" stroke-linecap="round" stroke-linejoin="round"/>
<path d="M12.5 9.5V12.5L14 14" stroke="white" stroke-width="2" stroke-linecap="round" stroke-linejoin="round"/>
<path d="M17.0105 17.85L16.6605 21.68C16.6154 22.1787 16.385 22.6423 16.0147 22.9792C15.6444 23.3162 15.1611 23.502 14.6605 23.5H10.3305C9.8298 23.502 9.34657 23.3162 8.97627 22.9792C8.60597 22.6423 8.37553 22.1787 8.33047 21.68L7.98047 17.85M7.99047 7.15002L8.34047 3.32002C8.38537 2.82309 8.6144 2.3609 8.98258 2.02417C9.35077 1.68744 9.83152 1.50049 10.3305 1.50002H14.6805C15.1811 1.49798 15.6644 1.68381 16.0347 2.02079C16.405 2.35776 16.6354 2.82137 16.6805 3.32002L17.0305 7.15002" stroke="white" stroke-width="2" stroke-linecap="round" stroke-linejoin="round"/>
</svg>
