<svg width="16" height="16" viewBox="0 0 16 16" fill="none" xmlns="http://www.w3.org/2000/svg">
<path fill-rule="evenodd" clip-rule="evenodd" d="M4.12403 1.5V3.41C4.12403 5.518 5.85903 7.227 7.99903 7.227C10.139 7.227 11.874 5.517 11.874 3.409V1.5H13.165V3.41C13.165 6.22 10.852 8.5 7.99903 8.5C5.14503 8.5 2.83203 6.22 2.83203 3.41V1.5H4.12403Z" fill="#0B0707"/>
<path d="M2.83203 14.5H13.165V12.59C13.165 9.78 10.852 7.5 7.99903 7.5C5.14503 7.5 2.83203 9.78 2.83203 12.59V14.5Z" fill="#0B0707"/>
<path fill-rule="evenodd" clip-rule="evenodd" d="M2 1.33056C2 0.963563 2.298 0.664563 2.667 0.664563H13.333C13.4227 0.661087 13.5122 0.675754 13.5961 0.707683C13.68 0.739612 13.7566 0.788147 13.8212 0.85038C13.8859 0.912613 13.9374 0.987263 13.9725 1.06986C14.0077 1.15246 14.0258 1.2413 14.0258 1.33106C14.0258 1.42083 14.0077 1.50967 13.9725 1.59227C13.9374 1.67486 13.8859 1.74951 13.8212 1.81175C13.7566 1.87398 13.68 1.92251 13.5961 1.95444C13.5122 1.98637 13.4227 2.00104 13.333 1.99756H2.667C2.49027 1.99756 2.32077 1.92743 2.19571 1.80256C2.07065 1.67769 2.00026 1.50729 2 1.33056ZM2 14.6646C2 14.2966 2.298 13.9976 2.667 13.9976H13.333C13.5099 13.9976 13.6796 14.0678 13.8046 14.1929C13.9297 14.318 14 14.4877 14 14.6646C14 14.8415 13.9297 15.0111 13.8046 15.1362C13.6796 15.2613 13.5099 15.3316 13.333 15.3316H2.667C2.4901 15.3316 2.32045 15.2613 2.19536 15.1362C2.07027 15.0111 2 14.8415 2 14.6646Z" fill="#0B0707"/>
</svg>
