<svg width="16" height="17" viewBox="0 0 16 17" fill="none" xmlns="http://www.w3.org/2000/svg">
<g clip-path="url(#clip0_792_2398)">
<mask id="mask0_792_2398" style="mask-type:luminance" maskUnits="userSpaceOnUse" x="0" y="0" width="16" height="17">
<path d="M16 16.5586H0V0.558594H16V16.5586Z" fill="white"/>
</mask>
<g mask="url(#mask0_792_2398)">
<path d="M8 16.5586C12.411 16.5586 16 12.9696 16 8.55859C16 4.14759 12.411 0.558594 8 0.558594C3.589 0.558594 0 4.14759 0 8.55859C0 12.9696 3.589 16.5586 8 16.5586ZM4.195 4.42059C4.2568 4.35846 4.33027 4.30915 4.41118 4.27551C4.4921 4.24186 4.57887 4.22454 4.6665 4.22454C4.75413 4.22454 4.8409 4.24186 4.92182 4.27551C5.00273 4.30915 5.0762 4.35846 5.138 4.42059L8.47 7.75359C8.53223 7.81542 8.58159 7.88897 8.61523 7.96998C8.64887 8.051 8.66613 8.13787 8.666 8.22559V12.5586C8.666 12.7355 8.59573 12.9051 8.47064 13.0302C8.34555 13.1553 8.1759 13.2256 7.999 13.2256C7.8221 13.2256 7.65245 13.1553 7.52736 13.0302C7.40227 12.9051 7.332 12.7355 7.332 12.5586V8.50159L4.194 5.36359C3.934 5.10259 3.935 4.68159 4.195 4.42059Z" fill="black"/>
</g>
</g>
<defs>
<clipPath id="clip0_792_2398">
<rect width="16" height="16" fill="white" transform="matrix(-1 0 0 -1 16 16.5586)"/>
</clipPath>
</defs>
</svg>
