<svg width="24" height="24" viewBox="0 0 24 24" fill="none" xmlns="http://www.w3.org/2000/svg">
<path d="M4.272 20.728L10.869 14.131C11.265 13.735 11.463 13.537 11.691 13.463C11.8918 13.3977 12.1082 13.3977 12.309 13.463C12.537 13.537 12.735 13.735 13.131 14.131L19.684 20.684M14 15L16.869 12.131C17.265 11.735 17.463 11.537 17.691 11.463C17.8918 11.3977 18.1082 11.3977 18.309 11.463C18.537 11.537 18.735 11.735 19.131 12.131L22 15M10 9C10 9.53043 9.78929 10.0391 9.41421 10.4142C9.03914 10.7893 8.53043 11 8 11C7.46957 11 6.96086 10.7893 6.58579 10.4142C6.21071 10.0391 6 9.53043 6 9C6 8.46957 6.21071 7.96086 6.58579 7.58579C6.96086 7.21071 7.46957 7 8 7C8.53043 7 9.03914 7.21071 9.41421 7.58579C9.78929 7.96086 10 8.46957 10 9ZM6.8 21H17.2C18.88 21 19.72 21 20.362 20.673C20.9265 20.3854 21.3854 19.9265 21.673 19.362C22 18.72 22 17.88 22 16.2V7.8C22 6.12 22 5.28 21.673 4.638C21.3854 4.07354 20.9265 3.61462 20.362 3.327C19.72 3 18.88 3 17.2 3H6.8C5.12 3 4.28 3 3.638 3.327C3.07354 3.61462 2.61462 4.07354 2.327 4.638C2 5.28 2 6.12 2 7.8V16.2C2 17.88 2 18.72 2.327 19.362C2.61462 19.9265 3.07354 20.3854 3.638 20.673C4.28 21 5.12 21 6.8 21Z" stroke="white" stroke-width="2" stroke-linecap="round" stroke-linejoin="round"/>
</svg>
