<svg width="62" height="56" viewBox="0 0 62 56" fill="none" xmlns="http://www.w3.org/2000/svg">
<rect x="9.83203" y="4" width="52" height="52" rx="26" fill="white"/>
<mask id="mask0_792_2121" style="mask-type:luminance" maskUnits="userSpaceOnUse" x="0" y="0" width="41" height="40">
<path d="M40.832 0H0.832031V40H40.832V0Z" fill="white"/>
</mask>
<g mask="url(#mask0_792_2121)">
<path d="M25.7977 19.6971C29.0758 17.9238 31.3082 14.4553 31.3082 10.4762C31.3082 4.70098 26.6073 0 20.832 0C15.0567 0 10.3559 4.70098 10.3559 10.4762C10.3559 14.4552 12.5883 17.9237 15.8663 19.6971C7.23587 21.9143 0.832031 29.7353 0.832031 39.0476C0.832031 39.5733 1.25873 40 1.78444 40C2.31015 40 2.73685 39.5733 2.73685 39.0476C2.73685 29.0704 10.8549 20.9523 20.8321 20.9523C30.8092 20.9523 38.9274 29.0704 38.9274 39.0476C38.9274 39.5733 39.3541 40 39.8798 40C40.4055 40 40.832 39.5733 40.832 39.0476C40.832 29.7353 34.4282 21.9143 25.7977 19.6971ZM12.2606 10.4762C12.2606 5.75045 16.1063 1.90473 20.832 1.90473C25.5577 1.90473 29.4034 5.75045 29.4034 10.4762C29.4034 15.2019 25.5577 19.0476 20.832 19.0476C16.1063 19.0476 12.2606 15.2019 12.2606 10.4762Z" fill="black"/>
</g>
</svg>
