<svg width="24" height="25" viewBox="0 0 24 25" fill="none" xmlns="http://www.w3.org/2000/svg">
<g clip-path="url(#clip0_792_1592)">
<path d="M6 20.8888H8.61C8.95 20.8888 9.289 20.9288 9.619 21.0108L12.377 21.6808C12.9755 21.8266 13.5985 21.841 14.203 21.7228L17.253 21.1298C18.0545 20.9748 18.7936 20.5898 19.38 20.0218L21.538 17.9238C21.6842 17.7835 21.8005 17.6151 21.88 17.4288C21.9594 17.2424 22.0004 17.0419 22.0004 16.8393C22.0004 16.6367 21.9594 16.4362 21.88 16.2498C21.8005 16.0634 21.6842 15.895 21.538 15.7548C21.2659 15.4933 20.9105 15.3357 20.5339 15.3095C20.1574 15.2834 19.7837 15.3904 19.478 15.6118L16.963 17.4468C16.5997 17.7108 16.162 17.8526 15.713 17.8518H13.286H14.831C15.702 17.8518 16.408 17.1648 16.408 16.3178V16.0108C16.4049 15.6648 16.2855 15.33 16.0689 15.0602C15.8523 14.7905 15.5511 14.6015 15.214 14.5238L12.829 13.9438C12.4407 13.8495 12.0426 13.8018 11.643 13.8018C10.678 13.8018 8.932 14.6008 8.932 14.6008L6 15.8268M2 15.4018V21.2018C2 21.7618 2 22.0418 2.109 22.2558C2.20487 22.4439 2.35785 22.5969 2.546 22.6928C2.76 22.8018 3.04 22.8018 3.6 22.8018H4.4C4.96 22.8018 5.24 22.8018 5.454 22.6918C5.642 22.5962 5.79496 22.4436 5.891 22.2558C6 22.0418 6 21.7618 6 21.2018V15.4018C6 14.8418 6 14.5618 5.891 14.3478C5.79513 14.1596 5.64215 14.0066 5.454 13.9108C5.24 13.8008 4.96 13.8008 4.4 13.8008H3.6C3.04 13.8008 2.76 13.8008 2.546 13.9108C2.35785 14.0066 2.20487 14.1596 2.109 14.3478C2 14.5618 2 14.8418 2 15.4018ZM17.191 4.39377C16.595 3.14477 15.219 2.48377 13.881 3.12177C12.542 3.76077 11.972 5.27477 12.533 6.60477C12.879 7.42577 13.871 9.02178 14.578 10.1208C14.839 10.5268 14.97 10.7298 15.161 10.8488C15.325 10.9508 15.53 11.0058 15.722 10.9988C15.947 10.9918 16.162 10.8808 16.592 10.6598C17.753 10.0618 19.41 9.17577 20.121 8.63777C20.6822 8.22139 21.057 7.60091 21.1644 6.91043C21.2718 6.21996 21.1032 5.51495 20.695 4.94777C19.834 3.73077 18.333 3.61077 17.191 4.39377Z" stroke="white" stroke-width="2" stroke-linecap="round" stroke-linejoin="round"/>
</g>
<defs>
<clipPath id="clip0_792_1592">
<rect width="24" height="24" fill="white" transform="translate(0 0.800781)"/>
</clipPath>
</defs>
</svg>
