<svg width="62" height="56" viewBox="0 0 62 56" fill="none" xmlns="http://www.w3.org/2000/svg">
<rect x="9.16016" y="4" width="52" height="52" rx="26" fill="white"/>
<mask id="mask0_792_2152" style="mask-type:luminance" maskUnits="userSpaceOnUse" x="0" y="0" width="41" height="40">
<path d="M40.1602 0H0.160156V40H40.1602V0Z" fill="white"/>
</mask>
<g mask="url(#mask0_792_2152)">
<path d="M40.1368 5.71508C40.1268 5.65344 40.1218 5.59172 40.1002 5.53344C40.0768 5.4718 40.0386 5.4218 40.0018 5.37008C39.9802 5.33844 39.9702 5.30172 39.9435 5.27172C39.9401 5.26672 39.9335 5.26508 39.9301 5.26172C39.8835 5.21336 39.8251 5.18008 39.7685 5.14336C39.7335 5.12172 39.7035 5.09 39.6651 5.07336C39.6218 5.055 39.5735 5.05172 39.5268 5.04C39.4668 5.025 39.4084 5.005 39.3484 5.00336C39.34 5.00336 39.3334 5 39.3268 5H0.993515C0.986875 5 0.981875 5.00336 0.975156 5.00336C0.915156 5.005 0.860156 5.025 0.801797 5.03836C0.753437 5.05 0.701797 5.05336 0.655156 5.075C0.623515 5.08836 0.596797 5.11664 0.565156 5.135C0.503515 5.17336 0.441797 5.21 0.391797 5.26164C0.388437 5.26664 0.381797 5.26664 0.378437 5.27164C0.351797 5.30164 0.341797 5.33828 0.320078 5.37C0.283437 5.42336 0.243437 5.47336 0.220078 5.53336C0.198438 5.59172 0.193438 5.65336 0.183438 5.715C0.178516 5.75508 0.160156 5.79172 0.160156 5.83344V34.1668C0.160156 34.6267 0.533515 35.0001 0.993515 35.0001H39.3269C39.7869 35.0001 40.1603 34.6267 40.1603 34.1667V5.83344C40.1602 5.79172 40.1418 5.75508 40.1368 5.71508ZM37.1786 6.66672L20.1602 22.2051L3.1418 6.66672H37.1786ZM38.4936 33.3334H1.8268V7.72172L19.5985 23.9484C19.7585 24.0934 19.9585 24.1667 20.1601 24.1667C20.3618 24.1667 20.5618 24.0934 20.7218 23.9484L38.4936 7.72172V33.3334Z" fill="black"/>
</g>
</svg>
