<svg width="24" height="25" viewBox="0 0 24 25" fill="none" xmlns="http://www.w3.org/2000/svg">
<path d="M7.5 3.80078C7.5 2.83478 8.284 2.05078 9.25 2.05078H14.75C14.9798 2.05078 15.2074 2.09605 15.4197 2.18399C15.632 2.27194 15.8249 2.40084 15.9874 2.56334C16.1499 2.72585 16.2788 2.91877 16.3668 3.13109C16.4547 3.3434 16.5 3.57097 16.5 3.80078C16.5 4.03059 16.4547 4.25816 16.3668 4.47048C16.2788 4.6828 16.1499 4.87572 15.9874 5.03822C15.8249 5.20072 15.632 5.32962 15.4197 5.41757C15.2074 5.50552 14.9798 5.55078 14.75 5.55078H9.25C8.78587 5.55078 8.34075 5.36641 8.01256 5.03822C7.68437 4.71003 7.5 4.26491 7.5 3.80078Z" fill="#0B0707"/>
<path fill-rule="evenodd" clip-rule="evenodd" d="M6.25 3.80133C6.25028 3.78043 6.2461 3.7597 6.23774 3.74054C6.22938 3.72138 6.21702 3.70422 6.2015 3.69021C6.18598 3.6762 6.16765 3.66567 6.14773 3.65931C6.12781 3.65295 6.10677 3.65091 6.086 3.65333C5.186 3.77733 4.439 4.04333 3.848 4.63333C3.246 5.23633 2.988 5.99433 2.867 6.89533C2.75 7.76233 2.75 8.86533 2.75 10.2353V16.8503C2.75 18.2203 2.75 19.3233 2.867 20.1903C2.987 21.0913 3.247 21.8503 3.848 22.4523C4.45 23.0543 5.208 23.3133 6.108 23.4343C6.975 23.5513 8.078 23.5513 9.445 23.5513H14.555C15.922 23.5513 17.025 23.5513 17.892 23.4343C18.792 23.3143 19.55 23.0543 20.152 22.4523C20.754 21.8493 21.012 21.0913 21.134 20.1903C21.25 19.3233 21.25 18.2203 21.25 16.8503V10.2353C21.25 8.86533 21.25 7.76233 21.134 6.89533C21.012 5.99433 20.754 5.23533 20.152 4.63333C19.562 4.04333 18.814 3.77733 17.914 3.65333C17.8933 3.65092 17.8724 3.65294 17.8525 3.65924C17.8327 3.66554 17.8144 3.67598 17.7989 3.68988C17.7834 3.70378 17.771 3.72081 17.7626 3.73985C17.7541 3.7589 17.7499 3.77951 17.75 3.80033C17.75 4.59598 17.4339 5.35904 16.8713 5.92165C16.3087 6.48426 15.5456 6.80033 14.75 6.80033H9.25C8.45435 6.80033 7.69129 6.48426 7.12868 5.92165C6.56607 5.35904 6.25 4.59698 6.25 3.80133ZM8.002 11.0503C7.80309 11.0503 7.61232 11.1293 7.47167 11.27C7.33102 11.4107 7.252 11.6014 7.252 11.8003C7.252 11.9992 7.33102 12.19 7.47167 12.3307C7.61232 12.4713 7.80309 12.5503 8.002 12.5503H16.002C16.2009 12.5503 16.3917 12.4713 16.5323 12.3307C16.673 12.19 16.752 11.9992 16.752 11.8003C16.752 11.6014 16.673 11.4107 16.5323 11.27C16.3917 11.1293 16.2009 11.0503 16.002 11.0503H8.002ZM8.002 16.0503C7.80309 16.0503 7.61232 16.1293 7.47167 16.27C7.33102 16.4107 7.252 16.6014 7.252 16.8003C7.252 16.9992 7.33102 17.19 7.47167 17.3307C7.61232 17.4713 7.80309 17.5503 8.002 17.5503H12.002C12.2009 17.5503 12.3917 17.4713 12.5323 17.3307C12.673 17.19 12.752 16.9992 12.752 16.8003C12.752 16.6014 12.673 16.4107 12.5323 16.27C12.3917 16.1293 12.2009 16.0503 12.002 16.0503H8.002Z" fill="#0B0707"/>
</svg>
