<svg width="16" height="17" viewBox="0 0 16 17" fill="none" xmlns="http://www.w3.org/2000/svg">
<path d="M9.3336 6.55859C9.51034 6.55859 9.67984 6.6288 9.80482 6.75378C9.92979 6.87875 10 7.04825 10 7.22499V9.89219C10 10.0689 9.92979 10.2384 9.80482 10.3634C9.67984 10.4884 9.51034 10.5586 9.3336 10.5586H6.6664C6.48966 10.5586 6.32016 10.4884 6.19518 10.3634C6.07021 10.2384 6 10.0689 6 9.89219V7.22499C6 7.04825 6.07021 6.87875 6.19518 6.75378C6.32016 6.6288 6.48966 6.55859 6.6664 6.55859H9.3336ZM2 9.22499C2 9.57869 2.1405 9.91789 2.3906 10.168C2.6407 10.4181 2.97991 10.5586 3.3336 10.5586H4.7896C4.7104 10.345 4.6696 10.1194 4.6664 9.89219V7.22499C4.66704 6.69476 4.87795 6.18642 5.25289 5.81148C5.62782 5.43655 6.13616 5.22563 6.6664 5.22499H9.3336C9.56117 5.22743 9.78661 5.2691 10 5.34819V3.89219C10.0001 3.71703 9.96568 3.54357 9.8987 3.38172C9.83172 3.21988 9.73349 3.07282 9.60963 2.94896C9.48577 2.8251 9.33872 2.72688 9.17687 2.65989C9.01502 2.59291 8.84156 2.55849 8.6664 2.55859H3.3336C3.15844 2.55849 2.98498 2.59291 2.82313 2.65989C2.66128 2.72688 2.51422 2.8251 2.39037 2.94896C2.26651 3.07282 2.16828 3.21988 2.1013 3.38172C2.03432 3.54357 1.9999 3.71703 2 3.89219V9.22499ZM12.6664 14.5586C13.0201 14.5586 13.3593 14.4181 13.6094 14.168C13.8595 13.9179 14 13.5787 14 13.225V7.89219C14.0001 7.71703 13.9657 7.54357 13.8987 7.38172C13.8317 7.21988 13.7335 7.07282 13.6096 6.94896C13.4858 6.8251 13.3387 6.72688 13.1769 6.65989C13.015 6.59291 12.8416 6.55849 12.6664 6.55859H11.2104C11.2895 6.77198 11.3312 6.99743 11.3336 7.22499V9.89219C11.333 10.4224 11.122 10.9308 10.7471 11.3057C10.3722 11.6806 9.86384 11.8916 9.3336 11.8922H6.6664C6.4392 11.8898 6.2136 11.8482 6 11.769V13.225C6 13.5787 6.1405 13.9179 6.3906 14.168C6.6407 14.4181 6.97991 14.5586 7.3336 14.5586H12.6664Z" fill="black"/>
</svg>
