<svg width="62" height="56" viewBox="0 0 62 56" fill="none" xmlns="http://www.w3.org/2000/svg">
<rect x="9.97852" y="4" width="52" height="52" rx="26" fill="white"/>
<mask id="mask0_792_2134" style="mask-type:luminance" maskUnits="userSpaceOnUse" x="0" y="0" width="41" height="40">
<path d="M40.9785 0H0.978516V40H40.9785V0Z" fill="white"/>
</mask>
<g mask="url(#mask0_792_2134)">
<path d="M36.8119 17.4844H26.8119C26.3519 17.4844 25.9785 17.8577 25.9785 18.3177C25.9785 18.7777 26.3519 19.1511 26.8119 19.1511H36.8119C37.2719 19.1511 37.6452 18.7777 37.6452 18.3177C37.6452 17.8577 37.2719 17.4844 36.8119 17.4844Z" fill="black"/>
<path d="M36.8119 22.4844H26.8119C26.3519 22.4844 25.9785 22.8577 25.9785 23.3177C25.9785 23.7777 26.3519 24.1511 26.8119 24.1511H36.8119C37.2719 24.1511 37.6452 23.7777 37.6452 23.3177C37.6452 22.8577 37.2719 22.4844 36.8119 22.4844Z" fill="black"/>
<path d="M37.6458 28.3177C37.6458 27.8577 37.2725 27.4844 36.8125 27.4844H5.14586C4.68586 27.4844 4.3125 27.8577 4.3125 28.3177C4.3125 28.7777 4.68586 29.1511 5.14586 29.1511H36.8125C37.2726 29.151 37.6458 28.7777 37.6458 28.3177Z" fill="black"/>
<path d="M5.14586 32.4844C4.68586 32.4844 4.3125 32.8577 4.3125 33.3177C4.3125 33.7777 4.68586 34.1511 5.14586 34.1511H33.4792C33.9392 34.1511 34.3126 33.7777 34.3126 33.3177C34.3126 32.8577 33.9392 32.4844 33.4792 32.4844H5.14586Z" fill="black"/>
<path d="M40.1451 12.4845H27.1119C26.6519 12.4845 26.2785 12.8579 26.2785 13.3179C26.2785 13.7779 26.6519 14.1512 27.1119 14.1512H39.3119V30.6612C39.3119 34.4229 36.2519 37.4846 32.4885 37.4846H2.64516V14.1511H9.8618C10.3218 14.1511 10.6952 13.7778 10.6952 13.3178C10.6952 12.8578 10.3218 12.4844 9.8618 12.4844H1.81187C1.35187 12.4845 0.978516 12.8579 0.978516 13.3179V38.3179C0.978516 38.7779 1.35187 39.1512 1.81187 39.1512H32.4885C37.1701 39.1512 40.9785 35.3429 40.9785 30.6612V13.3179C40.9785 12.8579 40.6051 12.4845 40.1451 12.4845Z" fill="black"/>
<path d="M9.6443 17.1866L7.6893 23.0532C7.5893 23.3532 7.66766 23.6833 7.89094 23.9066C8.0493 24.065 8.26258 24.15 8.4793 24.15C8.56766 24.15 8.65594 24.135 8.74266 24.1083L14.6093 22.1533C14.7327 22.1133 14.8443 22.0433 14.9343 21.9517L29.9259 6.95992C30.6043 6.27992 30.9793 5.37664 30.9793 4.41492C30.9793 3.45328 30.6043 2.54992 29.9259 1.87156C28.5659 0.511562 26.1976 0.511562 24.8359 1.87156L9.84594 16.8616C9.7543 16.9532 9.68594 17.0649 9.6443 17.1866ZM26.0159 3.04992C26.7459 2.31992 28.0176 2.31992 28.7493 3.04992C29.1109 3.41492 29.3127 3.89992 29.3127 4.41492C29.3127 4.92992 29.111 5.41656 28.7477 5.78156L13.8959 20.6332L9.79758 21.9999L11.1642 17.9015L26.0159 3.04992Z" fill="black"/>
</g>
</svg>
