<svg width="32" height="32" viewBox="0 0 32 32" fill="none" xmlns="http://www.w3.org/2000/svg">
<path d="M29.4201 19.6816C29.2165 18.651 28.8055 17.6725 28.2121 16.8057C27.6187 15.9388 26.8552 15.2017 25.9681 14.639C25.081 14.0763 24.0887 13.6999 23.0516 13.5326C22.0145 13.3652 20.9542 13.4105 19.9351 13.6656C19.7438 13.716 19.5725 13.8238 19.4443 13.9745C19.3161 14.1252 19.2372 14.3116 19.2181 14.5086L18.5401 21.0866C18.5264 21.221 18.5411 21.3568 18.583 21.4853C18.625 21.6137 18.6934 21.7319 18.7838 21.8324C18.8743 21.9328 18.9847 22.0131 19.1081 22.0683C19.2315 22.1234 19.365 22.1521 19.5001 22.1526H27.3561C27.6681 22.1536 27.9763 22.0845 28.2579 21.9503C28.5395 21.8162 28.7874 21.6204 28.9831 21.3776C29.1776 21.1452 29.3177 20.8724 29.3931 20.5789C29.4685 20.2855 29.4784 19.9789 29.4201 19.6816Z" fill="#F44336"/>
<path d="M12.7857 14.5093C12.7667 14.3122 12.6879 14.1257 12.5597 13.9748C12.4315 13.8239 12.2601 13.7159 12.0687 13.6653C11.0497 13.4104 9.98952 13.3652 8.95253 13.5327C7.91555 13.7001 6.92342 14.0765 6.03641 14.6392C5.1494 15.2019 4.38603 15.939 3.79266 16.8057C3.1993 17.6725 2.78833 18.6508 2.58472 19.6813C2.52656 19.9786 2.53553 20.2852 2.61096 20.5786C2.68639 20.872 2.82638 21.1449 3.02072 21.3773C3.21663 21.62 3.46455 21.8155 3.74616 21.9494C4.02776 22.0834 4.33587 22.1524 4.64772 22.1513H12.5047C12.708 22.1502 12.9059 22.0852 13.0702 21.9655C13.2346 21.8458 13.3572 21.6775 13.4207 21.4843C13.4626 21.3561 13.4773 21.2205 13.4637 21.0863L12.7857 14.5083V14.5093Z" fill="#FFC107"/>
<path d="M21.8154 4.71486C20.9129 4.71289 20.0248 4.94059 19.2345 5.37651C18.4443 5.81243 17.778 6.44224 17.2984 7.20668C16.8187 7.97111 16.5414 8.84503 16.4926 9.74618C16.4438 10.6473 16.625 11.5461 17.0194 12.3579C17.0694 12.4529 17.1314 12.5409 17.2044 12.6199L19.2484 14.6639C19.3284 14.7389 19.4194 14.8019 19.5184 14.8479C20.2364 15.1885 21.0206 15.367 21.8154 15.3709C23.2284 15.3709 24.5836 14.8095 25.5828 13.8103C26.582 12.8111 27.1434 11.4559 27.1434 10.0429C27.1434 8.62978 26.582 7.27459 25.5828 6.27539C24.5836 5.2762 23.2284 4.71486 21.8154 4.71486ZM10.1884 4.71486C9.3885 4.7153 8.59901 4.89581 7.87845 5.24302C7.15789 5.59023 6.52474 6.09522 6.02599 6.72052C5.52723 7.34583 5.17566 8.0754 4.99735 8.85513C4.81905 9.63486 4.81859 10.4447 4.996 11.2246C5.17341 12.0046 5.52415 12.7346 6.02219 13.3604C6.52024 13.9863 7.1528 14.492 7.87297 14.84C8.59314 15.1881 9.38242 15.3695 10.1823 15.3708C10.9821 15.3722 11.772 15.1934 12.4934 14.8479C12.5934 14.8019 12.6844 14.7389 12.7644 14.6639L14.8084 12.6199C14.8844 12.5399 14.9464 12.4479 14.9924 12.3489C15.3391 11.6297 15.5183 10.8413 15.5164 10.0429C15.514 8.63034 14.9517 7.27637 13.9528 6.27767C12.9539 5.27896 11.6009 4.71697 10.1884 4.71486Z" fill="#FFB74D"/>
<path d="M23.607 25.4858C23.2606 23.7235 22.3129 22.1362 20.9258 20.9952C19.5388 19.8543 17.7985 19.2305 16.0025 19.2305C14.2065 19.2305 12.4662 19.8543 11.0791 20.9952C9.69209 22.1362 8.74438 23.7235 8.39799 25.4858C8.33909 25.7845 8.34766 26.0926 8.4231 26.3876C8.49853 26.6826 8.63891 26.957 8.83399 27.1908C9.03071 27.4326 9.27877 27.6275 9.56018 27.7616C9.84158 27.8956 10.1493 27.9654 10.461 27.9658H21.544C21.8557 27.9654 22.1634 27.8956 22.4448 27.7616C22.7262 27.6275 22.9743 27.4326 23.171 27.1908C23.3661 26.957 23.5066 26.6826 23.582 26.3876C23.6574 26.0926 23.666 25.7845 23.607 25.4858Z" fill="#0D6EFC"/>
<path d="M16.0004 21.1843C17.4136 21.1843 18.7689 20.6229 19.7682 19.6237C20.7675 18.6244 21.3289 17.269 21.3289 15.8558C21.3289 14.4426 20.7675 13.0873 19.7682 12.088C18.7689 11.0887 17.4136 10.5273 16.0004 10.5273C14.5872 10.5273 13.2318 11.0887 12.2326 12.088C11.2333 13.0873 10.6719 14.4426 10.6719 15.8558C10.6719 17.269 11.2333 18.6244 12.2326 19.6237C13.2318 20.6229 14.5872 21.1843 16.0004 21.1843Z" fill="#FFCC80"/>
</svg>
