<svg width="52" height="52" viewBox="0 0 52 52" fill="none" xmlns="http://www.w3.org/2000/svg">
<g clip-path="url(#clip0_792_265)">
<path d="M11.4382 15.3932C11.4382 15.7326 11.5514 16.0155 11.7777 16.2418C12.004 16.4682 12.2586 16.553 12.5415 16.4964L33.5884 16.4964L14.3237 35.7612C14.0974 35.9875 13.9842 36.2704 13.9842 36.6098C13.9842 36.9493 14.0974 37.2322 14.3237 37.4585C14.55 37.6848 14.8329 37.798 15.1723 37.798C15.5118 37.798 15.7947 37.6848 16.021 37.4585L35.2857 18.1938L35.2857 39.2407C35.2292 39.5236 35.314 39.7782 35.5403 40.0045C35.7667 40.2308 36.0495 40.344 36.389 40.344C36.7285 40.344 37.0114 40.2308 37.2377 40.0045C37.464 39.7782 37.5771 39.4953 37.5771 39.1558L37.5771 15.2234L36.8982 14.3748L12.6263 14.205C12.2869 14.205 12.004 14.3182 11.7777 14.5445C11.5514 14.7708 11.4382 15.0537 11.4382 15.3932Z" fill="white"/>
</g>
<defs>
<clipPath id="clip0_792_265">
<rect width="36.0059" height="36.0059" fill="white" transform="matrix(-0.707107 -0.707107 -0.707107 0.707107 51.2402 26)"/>
</clipPath>
</defs>
</svg>
