<svg width="52" height="52" viewBox="0 0 52 52" fill="none" xmlns="http://www.w3.org/2000/svg">
<g clip-path="url(#clip0_792_262)">
<path d="M40.1246 36.6045C40.1246 36.2651 40.0114 35.9822 39.7852 35.756C39.5589 35.5297 39.3043 35.4449 39.0215 35.5014H17.9787L37.2397 16.2405C37.4659 16.0142 37.5791 15.7314 37.5791 15.392C37.5791 15.0526 37.4659 14.7697 37.2397 14.5435C37.0134 14.3172 36.7306 14.2041 36.3912 14.2041C36.0518 14.2041 35.7689 14.3172 35.5426 14.5435L16.2817 33.8044L16.2817 12.7616C16.3383 12.4788 16.2534 12.2242 16.0272 11.998C15.8009 11.7717 15.518 11.6586 15.1786 11.6586C14.8392 11.6586 14.5564 11.7717 14.3302 11.998C14.1039 12.2242 13.9908 12.5071 13.9908 12.8465L13.9908 36.7742L14.6696 37.6227L38.9367 37.7924C39.2761 37.7924 39.5589 37.6792 39.7852 37.453C40.0114 37.2267 40.1246 36.9439 40.1246 36.6045Z" fill="white"/>
</g>
<defs>
<clipPath id="clip0_792_262">
<rect width="35.9988" height="35.9988" fill="white" transform="matrix(0.707107 0.707107 0.707107 -0.707107 0.330078 26)"/>
</clipPath>
</defs>
</svg>
