<svg width="21" height="21" viewBox="0 0 21 21" fill="none" xmlns="http://www.w3.org/2000/svg">
<mask id="mask0_792_317" style="mask-type:alpha" maskUnits="userSpaceOnUse" x="0" y="0" width="21" height="21">
<g clip-path="url(#clip0_792_317)">
<g clip-path="url(#clip1_792_317)">
<mask id="mask1_792_317" style="mask-type:luminance" maskUnits="userSpaceOnUse" x="0" y="0" width="21" height="21">
<path d="M0.5 0.78125H20.5V20.7812H0.5V0.78125Z" fill="white"/>
</mask>
<g mask="url(#mask1_792_317)">
<path d="M20.4483 8.45325C20.3842 8.25524 20.2633 8.08046 20.1006 7.95065C19.9379 7.82085 19.7406 7.74177 19.5333 7.72325L13.7603 7.19825L11.4783 1.85625C11.3965 1.66477 11.2602 1.50154 11.0865 1.38682C10.9127 1.27209 10.709 1.21094 10.5008 1.21094C10.2926 1.21094 10.0889 1.27209 9.91517 1.38682C9.74139 1.50154 9.60514 1.66477 9.52332 1.85625L7.24032 7.19925L1.46732 7.72425C1.26023 7.74316 1.06324 7.82239 0.900729 7.95214C0.738222 8.08189 0.61734 8.25645 0.553051 8.45421C0.488763 8.65198 0.483891 8.86425 0.539039 9.06475C0.594188 9.26526 0.706934 9.44518 0.863318 9.58225L5.22732 13.4083L3.94032 19.0763C3.89453 19.2789 3.90916 19.4906 3.98239 19.6851C4.05562 19.8796 4.18424 20.0483 4.35235 20.1704C4.52047 20.2926 4.72069 20.3628 4.92827 20.3723C5.13586 20.3819 5.34169 20.3304 5.52032 20.2242L10.5003 17.2502L15.4783 20.2272C15.657 20.3341 15.8631 20.3861 16.071 20.3768C16.279 20.3675 16.4796 20.2974 16.6481 20.1752C16.8165 20.0529 16.9454 19.8839 17.0187 19.6891C17.092 19.4943 17.1065 19.2822 17.0603 19.0793L15.7733 13.4103L20.1363 9.58425C20.4573 9.30425 20.5803 8.86025 20.4483 8.45425V8.45325Z" fill="white"/>
</g>
</g>
</g>
</mask>
<g mask="url(#mask0_792_317)">
<rect width="20" height="20" transform="translate(0.5 0.78125)" fill="#FFC107"/>
</g>
<defs>
<clipPath id="clip0_792_317">
<rect width="20" height="20" fill="white" transform="translate(0.5 0.78125)"/>
</clipPath>
<clipPath id="clip1_792_317">
<rect width="20" height="21" fill="white" transform="translate(0.5 0.28125)"/>
</clipPath>
</defs>
</svg>
