<svg width="224" height="12" viewBox="0 0 224 12" fill="none" xmlns="http://www.w3.org/2000/svg">
<path d="M62.4925 11.4309L62.4916 11.4307C62.5937 11.4276 62.6968 11.4235 62.802 11.4185C62.9642 11.4108 63.1265 11.403 63.2886 11.3952C64.4605 11.3422 65.658 11.2997 66.8654 11.2678C68.2534 11.232 69.6421 11.1965 71.0298 11.1606C72.4999 11.1225 73.9692 11.0847 75.4402 11.0473C76.9018 11.0098 78.3657 10.9735 79.8215 10.9319C81.5705 10.8799 83.3156 10.8233 85.0003 10.7355C86.624 10.6462 88.2133 10.5411 89.88 10.4711C91.962 10.3752 94.0679 10.2895 96.2209 10.2344C100.12 10.1206 104.009 10.0001 107.936 9.90588C116.156 9.69489 124.374 9.48086 132.511 9.21305C135.872 9.10507 139.223 8.99175 142.578 8.88091C142.973 8.87776 143.367 8.87542 143.763 8.87537C144.498 8.87776 145.064 8.84269 145.474 8.78581C145.713 8.7783 145.951 8.76982 146.19 8.76231C148.739 8.68142 152.797 8.56272 155.385 8.48589C156.706 8.44679 158.025 8.40738 159.345 8.36792C165.121 8.19308 170.902 8.01935 176.608 7.80106C176.902 7.78785 177.273 7.77374 177.65 7.75697C182.99 7.65319 188.32 7.54199 193.637 7.41865C196.184 7.36703 198.735 7.31954 201.287 7.27233C201.777 7.26326 202.597 7.32251 202.757 7.2439C202.773 7.23549 202.779 7.23284 202.796 7.22465C202.441 7.22599 202.277 7.22665 202.223 7.22078C202.414 7.22216 202.604 7.22234 202.796 7.22465L202.797 7.22462C204.536 6.37141 204.696 6.39804 202.609 6.35409C202.456 6.3531 202.303 6.3532 202.149 6.35246C204.125 6.261 206.107 6.1719 208.098 6.08751C211.302 5.95322 214.547 5.84172 217.823 5.75073C220.639 5.67258 221.599 5.79201 218.759 4.8574C218.753 4.8493 218.746 4.84246 218.739 4.83419C218.735 4.82865 218.707 4.82838 218.674 4.82955C218.44 4.75816 217.747 4.84902 217.286 4.85778C215.027 4.90652 212.788 4.96881 210.559 5.03792C210.473 4.96865 210.256 4.86489 209.972 4.72089C210.845 4.65131 211.623 4.5555 212.019 4.41166C214.606 4.35932 217.191 4.30593 219.779 4.25482C223.638 4.1199 224.005 4.28771 221.842 3.29248C221.72 3.23608 221.16 3.28118 220.821 3.28102C220.684 3.28096 220.547 3.28172 220.411 3.28202C220.489 3.27533 220.535 3.26581 220.508 3.24983C218.903 2.295 219.446 2.40265 216.143 2.48746C214.734 2.53503 213.328 2.58333 211.92 2.63158C211.765 2.58826 211.544 2.53589 211.25 2.47292C211.379 2.33535 211.438 2.23354 211.425 2.16123C211.746 2.1519 212.096 2.14172 212.404 2.1329C214.907 2.05796 217.397 1.9745 219.865 1.87842C220.283 1.86216 220.707 1.84856 221.114 1.82657C221.401 1.81098 222.061 1.81664 221.939 1.76601C221.274 1.49062 220.1 1.25449 219.155 1.00067C219.142 1.00133 219.129 1.00177 219.116 1.00248C219.115 1.00117 219.112 0.999887 219.111 0.99858C219.108 0.996291 219.114 0.994366 219.123 0.992608L219.123 0.992431C219.103 0.987158 219.081 0.982208 219.062 0.976929C217.667 1.03573 216.269 1.09234 214.868 1.14786C215.151 0.86652 213.713 0.521983 211.444 0.610365C207.657 0.741314 203.881 0.878516 200.098 1.01161C200.148 0.978686 200.197 0.945581 200.254 0.913161C199.199 0.816652 198.219 0.682237 197.09 0.623658C196.493 0.592647 195.888 0.643292 195.29 0.655572C194.527 0.671262 193.766 0.689843 193.005 0.70768C191.137 0.751464 189.272 0.798235 187.406 0.844485C186.957 0.797141 186.36 0.778781 185.617 0.807617C182.817 0.904293 180.018 1.00476 177.22 1.10416C176.231 1.12972 175.242 1.15499 174.254 1.18065C174.318 1.15693 174.381 1.13312 174.449 1.10976C173.563 1.00844 172.8 0.867819 171.792 0.805781C171.258 0.772938 170.61 0.824856 170.018 0.836951C169.263 0.852408 168.507 0.870847 167.751 0.888535C165.04 0.951925 162.329 1.01977 159.617 1.0871C153.069 1.25419 146.522 1.42644 139.974 1.59456C133.259 1.77107 126.547 1.97211 119.836 2.18271C118.699 2.2201 117.562 2.25893 116.425 2.29766C109.33 2.38673 101.958 2.52878 94.5437 2.71928C77.7856 3.15128 61.495 3.81304 48.2066 4.6016C46.9467 4.65513 45.6878 4.71212 44.4297 4.76942C42.5277 4.85438 40.6318 4.94445 38.7228 5.01477C37.3795 5.06301 36.0337 5.09858 34.6889 5.13379C33.5443 5.16448 32.3986 5.19157 31.254 5.22069C29.0291 5.27833 28.9616 5.33139 29.6625 5.78784C28.5646 5.82842 27.4903 5.86856 26.3918 5.91001C25.398 5.93464 24.754 5.94763 24.3709 5.98748C24.0557 6.00037 23.7406 6.01352 23.4251 6.02527C23.2954 6.02998 23.0067 6.01277 23.0362 6.03504C23.2905 6.22753 23.451 6.368 23.5913 6.4873C23.5695 6.54008 23.5374 6.60197 23.5101 6.66639C22.1483 6.71478 20.7865 6.76257 19.425 6.81166C14.83 6.96915 13.4521 7.02174 9.05399 7.15407C7.95114 7.18728 6.51391 7.08264 5.74532 7.24697C5.62839 7.27197 5.52619 7.29827 5.43209 7.32528C4.79347 7.28154 4.15766 7.23767 4.21337 7.28178C4.3976 7.42769 4.47029 7.59324 4.6456 7.74566C4.50808 7.89049 4.42944 8.03913 4.26712 8.17795C4.21595 8.22164 4.789 8.15044 5.39734 8.07346C5.49727 8.09591 5.60637 8.11732 5.73181 8.13608C6.30442 8.22176 7.18582 8.15232 8.05378 8.08925C7.57324 8.28755 7.83594 8.52098 8.76798 8.625C8.77752 8.76358 8.91762 8.86857 9.15586 8.94877C9.14818 8.97106 9.14612 8.99336 9.13187 9.01548C9.1649 9.0143 9.19793 9.01336 9.23115 9.0123C9.17658 9.07046 9.20338 9.11836 9.30194 9.15764C7.27358 9.23671 5.25105 9.32814 3.22668 9.41634C2.9037 9.43504 2.57487 9.44639 2.24537 9.45722C1.99426 9.45376 1.74973 9.45125 1.66573 9.4772C1.46029 9.48475 1.25593 9.49295 1.05374 9.50402C0.804253 9.51769 0.279481 9.50857 0.312911 9.55336C0.825871 10.2408 0.552052 10.3959 1.44233 10.3908C1.42087 10.4041 1.54846 10.3962 1.70004 10.3848C1.99779 10.3769 2.36802 10.3619 2.90454 10.3421C3.52962 10.3143 4.15559 10.2876 4.78111 10.2608C4.66592 10.4386 5.08839 10.6142 6.21077 10.68C5.92076 10.6951 5.63147 10.7106 5.34312 10.7276C5.0755 10.7434 4.52387 10.7319 4.54651 10.7807C5.01174 11.7844 4.48452 11.6799 7.83313 11.5533C8.99785 11.5054 10.163 11.4579 11.3275 11.4096C11.9271 11.3847 12.0563 11.3792 12.5508 11.3586C12.4327 11.4633 12.48 11.4804 13.0337 11.467C13.0358 11.4761 13.1239 11.4664 13.1851 11.4628C13.2539 11.4609 13.3313 11.4589 13.4128 11.4565C13.6492 11.4504 13.9171 11.4438 14.1097 11.4389C14.2981 11.4342 14.4859 11.4299 14.6744 11.4255C16.2338 11.3896 17.7939 11.3567 19.3497 11.3371C21.1566 11.3139 22.9661 11.2767 24.776 11.2438C25.122 11.2366 25.4686 11.2286 25.8147 11.2206C24.7405 11.515 25.5801 11.9491 27.9236 11.8781L27.9236 11.8779C28.0259 11.8748 28.131 11.8706 28.2389 11.8655C28.4052 11.8577 28.5717 11.8498 28.738 11.8419C29.9359 11.7882 31.1438 11.7453 32.3477 11.7135C33.7304 11.6779 35.1139 11.6425 36.4966 11.6067C37.9613 11.5689 39.4249 11.5312 40.8897 11.494C42.3456 11.4566 43.8026 11.4206 45.2584 11.3789C47.0101 11.3268 48.7642 11.27 50.5018 11.1806C52.1826 11.0897 53.8502 10.9824 55.5465 10.9116C55.9996 10.8909 56.4534 10.8711 56.9073 10.8516C57.398 10.8423 57.8888 10.8331 58.3799 10.8241C58.7295 10.8168 59.0778 10.8088 59.4263 10.8007C58.7035 11.0851 60.1542 11.5017 62.4924 11.4308L62.4925 11.4309ZM219.123 0.992597C219.133 0.995334 219.145 0.997921 219.155 1.00066C219.254 0.995814 219.354 0.991188 219.452 0.986016C219.55 0.980858 219.192 0.978734 219.123 0.992734L219.123 0.992597ZM217.702 2.47054C217.783 2.45764 218.006 2.45454 218.148 2.45359C217.996 2.45557 217.848 2.46282 217.702 2.47054Z" fill="#FF8A2D"/>
</svg>
