<svg width="52" height="5" viewBox="0 0 52 5" fill="none" xmlns="http://www.w3.org/2000/svg">
<path d="M14.4275 4.68432L14.4272 4.68424C14.4506 4.68349 14.4741 4.68227 14.4982 4.68062C14.5352 4.67815 14.5722 4.67562 14.6092 4.6731C14.8768 4.65635 15.1505 4.64465 15.4266 4.63799C15.744 4.63074 16.0616 4.62361 16.379 4.61627C16.7152 4.60853 17.0512 4.60086 17.3876 4.59342C17.7219 4.58585 18.0567 4.57889 18.3896 4.56937C18.7894 4.557 19.1883 4.54248 19.5728 4.51297C19.9433 4.48237 20.3056 4.44419 20.6863 4.42292C21.1617 4.39233 21.6427 4.36667 22.1351 4.35563C23.0265 4.32906 23.9157 4.29927 24.8138 4.28202C26.6937 4.23947 28.5731 4.19549 30.433 4.1259C31.2011 4.09838 31.967 4.06831 32.734 4.03943C32.8243 4.04064 32.9146 4.04222 33.0055 4.04489C33.1738 4.05098 33.303 4.03849 33.3959 4.01476C33.4505 4.01288 33.5048 4.01055 33.5595 4.00867C34.1422 3.98827 35.07 3.96049 35.6617 3.94225C35.9636 3.93299 36.2653 3.92358 36.5671 3.91415C37.8876 3.87186 39.2091 3.83012 40.5127 3.76712C40.58 3.76296 40.6648 3.75891 40.7509 3.75365C41.9726 3.74151 43.1921 3.72586 44.4082 3.70445C44.991 3.69767 45.5746 3.69285 46.1586 3.68816C46.2709 3.68726 46.4597 3.72042 46.4949 3.68488C46.4986 3.68108 46.4998 3.67988 46.5035 3.67618C46.4223 3.6744 46.3846 3.67359 46.3722 3.67049C46.416 3.67243 46.4597 3.6738 46.5035 3.67618L46.5037 3.67617C46.8871 3.29046 46.9243 3.30396 46.4454 3.26933C46.4101 3.26782 46.375 3.26683 46.3398 3.26545C46.7911 3.23624 47.2436 3.20816 47.6984 3.18235C48.4301 3.14151 49.1718 3.11158 49.9208 3.0914C50.5648 3.07409 50.7868 3.13624 50.1195 2.68156C50.1178 2.67774 50.1161 2.67451 50.1145 2.67061C50.1134 2.668 50.107 2.66768 50.0995 2.668C50.0447 2.63316 49.8873 2.67078 49.7818 2.67174C49.2651 2.67913 48.7531 2.69296 48.2435 2.71004C48.2226 2.67719 48.171 2.62737 48.1034 2.55836C48.3023 2.53187 48.4789 2.49251 48.567 2.42818C49.1588 2.42133 49.7502 2.41399 50.3424 2.40773C51.2243 2.37105 51.3114 2.45172 50.7981 1.97338C50.769 1.94627 50.6416 1.96349 50.5637 1.96111C50.5324 1.96015 50.5011 1.95958 50.4698 1.9588C50.4877 1.95621 50.498 1.95209 50.4915 1.94446C50.1069 1.48873 50.2331 1.54256 49.4777 1.55967C49.1558 1.57228 48.8343 1.58525 48.5127 1.59818C48.4763 1.57695 48.4247 1.55105 48.3562 1.51972C48.3834 1.4565 48.3951 1.40947 48.3907 1.37569C48.4642 1.37352 48.5442 1.37115 48.6146 1.36913C49.1868 1.35119 49.7561 1.3292 50.3199 1.30117C50.4154 1.29643 50.5123 1.29297 50.605 1.28548C50.6705 1.28017 50.8219 1.28728 50.793 1.26286C50.6357 1.13005 50.3626 1.01208 50.1416 0.887421C50.1386 0.887638 50.1355 0.887751 50.1325 0.887993C50.1322 0.887374 50.1316 0.886762 50.1313 0.886143C50.1307 0.88506 50.132 0.884204 50.1339 0.883443L50.1339 0.88336C50.1294 0.880772 50.1242 0.878313 50.1197 0.875723C49.8011 0.893661 49.4818 0.910554 49.1618 0.926918C49.2215 0.797762 48.8858 0.62749 48.3674 0.653279C47.502 0.688607 46.6393 0.726922 45.7748 0.763274C45.7856 0.748274 45.7962 0.733182 45.8086 0.71846C45.5652 0.666346 45.3382 0.597075 45.0785 0.562129C44.941 0.543628 44.8035 0.563125 44.6666 0.56479C44.492 0.566923 44.318 0.57042 44.144 0.573572C43.7165 0.581297 43.29 0.59044 42.8634 0.599336C42.7595 0.574231 42.6223 0.561626 42.4526 0.570022C41.8127 0.596075 41.1733 0.623904 40.5337 0.651233C40.3076 0.656438 40.0815 0.661504 39.8554 0.666756C39.8696 0.656136 39.8837 0.645474 39.8988 0.635051C39.694 0.581836 39.5166 0.511147 39.2846 0.47541C39.1617 0.45649 39.014 0.476279 38.8786 0.477901C38.7059 0.479981 38.533 0.483445 38.3602 0.486562C37.74 0.497707 37.1198 0.510925 36.4996 0.523903C35.0022 0.557345 33.5048 0.59319 32.0074 0.627109C30.4719 0.663806 28.9373 0.711946 27.4031 0.764552C27.1432 0.77426 26.8834 0.784641 26.6236 0.794974C24.9994 0.788354 23.3126 0.804537 21.6169 0.843007C17.7845 0.930623 14.0632 1.12845 11.0322 1.40571C10.7444 1.42211 10.4569 1.44012 10.1696 1.45829C9.73532 1.48497 9.30247 1.51407 8.86626 1.53389C8.55931 1.54725 8.25154 1.5547 7.944 1.56198C7.68226 1.56852 7.4202 1.57337 7.15844 1.57917C6.64962 1.59094 6.63509 1.6152 6.80383 1.83261C6.55296 1.84407 6.30751 1.85549 6.0565 1.86735C5.82922 1.87208 5.68187 1.87377 5.59479 1.88974C5.52281 1.8936 5.45083 1.89759 5.37874 1.90093C5.3491 1.90224 5.28263 1.89227 5.28978 1.90284C5.35149 1.99425 5.39078 2.06078 5.42505 2.11731C5.42098 2.14175 5.41474 2.17037 5.40962 2.20019C5.09844 2.21351 4.78721 2.22653 4.47609 2.24017C3.42594 2.28238 3.11113 2.29754 2.10564 2.32936C1.85352 2.33736 1.5223 2.27886 1.34911 2.3502C1.32276 2.36106 1.2998 2.37262 1.27872 2.38457C1.1316 2.35986 0.985122 2.3351 0.998674 2.35603C1.04349 2.42526 1.0631 2.50288 1.10598 2.57508C1.07705 2.64163 1.06167 2.71034 1.02695 2.77392C1.016 2.79393 1.14606 2.76464 1.28409 2.7329C1.30739 2.74404 1.33276 2.75475 1.36184 2.76435C1.49459 2.80815 1.69532 2.78177 1.8931 2.75827C1.78651 2.8474 1.85087 2.95794 2.06631 3.01272C2.07096 3.07735 2.10493 3.12721 2.16095 3.16619C2.15959 3.17652 2.15952 3.1869 2.15664 3.19711C2.16419 3.19678 2.17174 3.19657 2.17934 3.1963C2.16787 3.22303 2.17486 3.24552 2.19815 3.26449C1.73475 3.28758 1.27291 3.31646 0.810591 3.34382C0.736913 3.35034 0.661759 3.3534 0.586446 3.35621C0.528842 3.35289 0.472758 3.35007 0.453974 3.36159C0.407028 3.36371 0.36035 3.36615 0.314213 3.36993C0.257286 3.37461 0.136871 3.3668 0.145329 3.3879C0.27512 3.71163 0.215136 3.78206 0.419052 3.78571C0.414372 3.79179 0.443467 3.78893 0.478001 3.78466C0.546093 3.78302 0.630663 3.77855 0.753256 3.77292C0.896001 3.76421 1.03897 3.75605 1.18183 3.74779C1.1586 3.82986 1.25854 3.91451 1.51691 3.95277C1.45072 3.95785 1.38471 3.96313 1.31893 3.9691C1.25789 3.97465 1.13128 3.96552 1.13733 3.98841C1.26182 4.4592 1.13914 4.40693 1.90423 4.37065C2.17028 4.35623 2.43643 4.342 2.70243 4.32739C2.83939 4.31986 2.86889 4.3182 2.98183 4.31194C2.95664 4.3599 2.96779 4.36822 3.09443 4.36571C3.09507 4.36996 3.11508 4.36606 3.12906 4.3648C3.14477 4.36437 3.16249 4.36396 3.18112 4.36339C3.23519 4.36216 3.29646 4.36088 3.3405 4.35994C3.38359 4.35902 3.42655 4.35826 3.46965 4.3575C3.82636 4.35134 4.18328 4.34661 4.53944 4.34803C4.9531 4.34946 5.36707 4.34444 5.78124 4.34135C5.86039 4.34034 5.93969 4.339 6.01885 4.33759C5.77795 4.4675 5.97807 4.67541 6.51384 4.65822L6.51383 4.65813C6.53722 4.65738 6.56121 4.65615 6.58585 4.65449C6.62382 4.65199 6.66183 4.64942 6.6998 4.64688C6.97334 4.62998 7.24937 4.61819 7.52468 4.61156C7.84091 4.60434 8.15731 4.59725 8.47352 4.58994C8.8085 4.58223 9.14322 4.5746 9.47821 4.5672C9.81118 4.55967 10.1444 4.55275 10.4773 4.54323C10.8778 4.53084 11.2787 4.51627 11.6753 4.48641C12.0588 4.45544 12.439 4.41675 12.8265 4.39528C12.93 4.38869 13.0336 4.38257 13.1373 4.37655C13.2495 4.37557 13.3618 4.37459 13.4742 4.37373C13.5542 4.3727 13.6339 4.37135 13.7136 4.36992C13.553 4.49753 13.8929 4.70145 14.4274 4.68429L14.4275 4.68432ZM50.134 0.883438C50.1364 0.884783 50.1392 0.88607 50.1415 0.887417C50.1641 0.885828 50.1868 0.884346 50.2093 0.882605C50.2316 0.880866 50.1495 0.877447 50.134 0.883501L50.134 0.883438ZM49.8347 1.56236C49.8531 1.5569 49.904 1.55697 49.9365 1.55749C49.9017 1.55738 49.8681 1.55976 49.8347 1.56236Z" fill="#6D22FF"/>
</svg>
