<svg width="113" height="7" viewBox="0 0 113 7" fill="none" xmlns="http://www.w3.org/2000/svg">
<path d="M31.5364 5.9553L31.5359 5.95523C31.5874 5.95367 31.6395 5.95164 31.6926 5.94916C31.7746 5.9454 31.8565 5.94158 31.9384 5.93778C32.5303 5.91176 33.1351 5.8906 33.7448 5.87441C34.4458 5.85619 35.1471 5.83809 35.8479 5.81979C36.5903 5.80044 37.3323 5.78116 38.0752 5.76211C38.8133 5.74299 39.5525 5.72446 40.2877 5.70345C41.171 5.67726 42.0523 5.64895 42.9032 5.6061C43.7233 5.56265 44.5261 5.51188 45.3679 5.47743C46.4195 5.43037 47.483 5.38806 48.5703 5.36002C50.5392 5.30264 52.5036 5.24212 54.4866 5.19385C58.6377 5.08638 62.7879 4.97749 66.8974 4.84359C68.5944 4.78952 70.2869 4.73297 71.9816 4.67757C72.1806 4.67567 72.3797 4.67414 72.5799 4.67368C72.9507 4.67398 73.237 4.657 73.4439 4.63001C73.5647 4.62625 73.6846 4.62203 73.8054 4.61827C75.0928 4.57773 77.1423 4.51788 78.4492 4.47919C79.1161 4.4595 79.7825 4.43966 80.4493 4.4198C83.3662 4.33188 86.2855 4.24447 89.167 4.13636C89.3159 4.12987 89.5034 4.12288 89.6938 4.11464C92.3902 4.06035 95.082 4.00261 97.7668 3.93921C99.0532 3.91232 100.341 3.88736 101.63 3.86253C101.878 3.85776 102.291 3.88449 102.372 3.84765C102.381 3.84371 102.383 3.84247 102.392 3.83863C102.213 3.83964 102.13 3.84013 102.103 3.83745C102.199 3.83788 102.295 3.83776 102.392 3.83863L102.392 3.83861C103.273 3.43869 103.354 3.45093 102.3 3.43273C102.223 3.43243 102.145 3.43265 102.068 3.43248C103.066 3.38763 104.067 3.34389 105.073 3.30233C106.691 3.23615 108.33 3.18057 109.984 3.13451C111.406 3.09496 111.89 3.14961 110.459 2.71676C110.456 2.71299 110.452 2.70981 110.449 2.70595C110.447 2.70337 110.433 2.70328 110.416 2.70386C110.299 2.67082 109.948 2.71396 109.715 2.71856C108.575 2.74378 107.444 2.77531 106.318 2.81C106.275 2.77778 106.165 2.72962 106.023 2.66276C106.464 2.62934 106.857 2.58379 107.057 2.51625C108.363 2.48899 109.669 2.46124 110.976 2.43454C112.925 2.36735 113.11 2.44523 112.021 1.98335C111.959 1.95718 111.676 1.97883 111.505 1.97913C111.436 1.97925 111.367 1.97976 111.298 1.98005C111.337 1.97684 111.36 1.97235 111.347 1.96493C110.539 1.52128 110.813 1.5709 109.145 1.6141C108.434 1.63784 107.723 1.66192 107.012 1.68598C106.934 1.66595 106.823 1.64176 106.674 1.61271C106.74 1.54839 106.77 1.50083 106.764 1.46712C106.926 1.46241 107.103 1.45728 107.258 1.45282C108.522 1.41511 109.78 1.37343 111.026 1.32589C111.237 1.31785 111.452 1.31103 111.657 1.30033C111.802 1.29274 112.135 1.29465 112.074 1.27117C111.739 1.14344 111.147 1.03458 110.67 0.917219C110.664 0.917539 110.657 0.917758 110.65 0.918103C110.65 0.917494 110.649 0.9169 110.648 0.916292C110.647 0.915226 110.65 0.914322 110.654 0.913493L110.654 0.91341C110.644 0.910972 110.633 0.908687 110.623 0.906246C109.919 0.935214 109.213 0.96316 108.505 0.990599C108.649 0.859049 107.924 0.699912 106.778 0.74364C104.865 0.808896 102.958 0.877057 101.048 0.943309C101.073 0.927896 101.098 0.912399 101.127 0.897214C100.594 0.853355 100.1 0.791732 99.5301 0.765649C99.2285 0.751841 98.9232 0.776132 98.6212 0.782519C98.2357 0.790679 97.8515 0.800185 97.4673 0.809343C96.5236 0.831826 95.5819 0.855698 94.6398 0.879327C94.413 0.857736 94.1115 0.84983 93.7362 0.864099C92.3222 0.912281 90.909 0.96223 89.4955 1.01168C88.9963 1.02469 88.4969 1.03757 87.9978 1.05063C88.0301 1.03949 88.0621 1.02832 88.0964 1.01735C87.6494 0.971054 87.2644 0.906299 86.7558 0.87847C86.4864 0.863736 86.1587 0.88867 85.8599 0.894964C85.4786 0.903006 85.0969 0.91244 84.7153 0.921523C83.3461 0.95408 81.9767 0.988714 80.6074 1.02311C77.3007 1.10827 73.9942 1.19583 70.6874 1.28147C67.2966 1.3712 63.9067 1.47237 60.5174 1.57801C59.9432 1.5967 59.3691 1.61607 58.795 1.63539C55.2122 1.68475 51.4895 1.75913 47.7452 1.85617C39.2822 2.07615 31.0547 2.40279 24.3427 2.78527C23.7064 2.81163 23.0706 2.83961 22.4351 2.86772C21.4745 2.90945 20.5169 2.95355 19.5528 2.98846C18.8744 3.01244 18.1948 3.03051 17.5157 3.04842C16.9376 3.064 16.359 3.0779 15.781 3.09274C14.6574 3.12208 14.6232 3.14691 14.9758 3.35906C14.4213 3.3792 13.8787 3.39911 13.3239 3.41965C12.8221 3.43224 12.4969 3.43901 12.3033 3.45802C12.1441 3.46438 11.985 3.47086 11.8256 3.47669C11.7601 3.47903 11.6144 3.47132 11.6292 3.48167C11.7571 3.57119 11.8377 3.63654 11.9082 3.69204C11.897 3.71668 11.8807 3.74559 11.8667 3.77567C11.179 3.79974 10.4912 3.82353 9.80354 3.84793C7.48295 3.92646 6.78706 3.95251 4.56593 4.01908C4.00898 4.03579 3.28358 3.98856 2.89502 4.06606C2.8359 4.07786 2.78422 4.09024 2.73663 4.10294C2.4143 4.08324 2.09339 4.06347 2.12139 4.08399C2.21399 4.15185 2.25022 4.229 2.33829 4.2999C2.26844 4.36762 2.2283 4.43704 2.14593 4.50198C2.11997 4.52242 2.40954 4.48857 2.71693 4.45199C2.76732 4.46235 2.82234 4.47222 2.88562 4.48084C3.1745 4.52017 3.61975 4.48681 4.05819 4.45643C3.81498 4.54947 3.94696 4.65807 4.41727 4.70556C4.42169 4.7702 4.49212 4.81902 4.61218 4.85617C4.60824 4.86658 4.60713 4.87698 4.59988 4.88732C4.61656 4.88673 4.63324 4.88626 4.65002 4.88573C4.62229 4.91291 4.63568 4.93523 4.68533 4.95344C3.66093 4.99256 2.63943 5.03744 1.61701 5.08081C1.45387 5.08989 1.2878 5.09555 1.12139 5.10097C0.99461 5.09963 0.871142 5.09873 0.828655 5.11092C0.724897 5.11468 0.621691 5.11872 0.519567 5.12411C0.393555 5.13076 0.128608 5.12709 0.145359 5.14794C0.40238 5.46804 0.263668 5.54072 0.713209 5.53735C0.702338 5.5436 0.766778 5.53973 0.843353 5.53426C0.993719 5.53028 1.1807 5.52287 1.45167 5.51301C1.76738 5.49935 2.08352 5.48624 2.39945 5.47303C2.34076 5.55611 2.55358 5.63754 3.12012 5.66699C2.97364 5.67437 2.82751 5.68194 2.68187 5.69019C2.54669 5.69785 2.26819 5.69307 2.27948 5.71581C2.51149 6.18353 2.24558 6.13535 3.93676 6.0726C4.52501 6.04897 5.11346 6.02553 5.70162 6.0017C6.00444 5.98943 6.06967 5.98675 6.31942 5.97658C6.25949 6.02554 6.28334 6.03349 6.56294 6.02661C6.56397 6.03085 6.60847 6.02625 6.63943 6.0245C6.67413 6.02353 6.71325 6.02251 6.75442 6.0213C6.8738 6.0182 7.00909 6.0148 7.10633 6.01234C7.20148 6.00993 7.29632 6.00769 7.39148 6.00544C8.17899 5.98697 8.96684 5.96992 9.75245 5.95906C10.6649 5.94624 11.5786 5.92693 12.4926 5.90955C12.6673 5.90581 12.8424 5.90173 13.0172 5.89759C12.4739 6.03614 12.8966 6.23768 14.0802 6.20198L14.0801 6.20189C14.1318 6.20033 14.1849 6.19827 14.2394 6.19576C14.3234 6.19194 14.4075 6.18806 14.4914 6.1842C15.0964 6.15782 15.7065 6.13649 16.3144 6.12035C17.0127 6.10221 17.7114 6.08419 18.4097 6.06596C19.1494 6.04668 19.8885 6.02748 20.6282 6.00852C21.3635 5.98949 22.0992 5.97106 22.8345 5.95005C23.7191 5.92382 24.6049 5.89538 25.4826 5.85177C26.3315 5.80749 27.1738 5.7556 28.0306 5.72071C28.2594 5.71054 28.4886 5.70083 28.7179 5.69121C28.9656 5.68636 29.2135 5.68151 29.4615 5.67678C29.638 5.67299 29.8139 5.66889 29.9899 5.6647C29.6241 5.79818 30.3555 5.99091 31.5363 5.95528L31.5364 5.9553ZM110.654 0.913487C110.659 0.914753 110.665 0.915946 110.67 0.917215C110.72 0.914843 110.771 0.912576 110.82 0.910055C110.87 0.907541 110.689 0.906945 110.654 0.913551L110.654 0.913487ZM109.932 1.60449C109.973 1.59838 110.086 1.59669 110.157 1.59609C110.081 1.59718 110.006 1.60073 109.932 1.60449Z" fill="#6D22FF"/>
</svg>
