<svg width="41" height="7" viewBox="0 0 41 7" fill="none" xmlns="http://www.w3.org/2000/svg">
<path d="M11.5145 6.79801L11.5143 6.79788C11.5326 6.79722 11.5511 6.79579 11.5699 6.79368C11.5988 6.79052 11.6278 6.78726 11.6568 6.78402C11.8662 6.76304 12.0808 6.75052 12.2976 6.74636C12.5469 6.74224 12.7963 6.73832 13.0455 6.73404C13.3095 6.72958 13.5734 6.72522 13.8376 6.72127C14.1001 6.71702 14.3631 6.7138 14.6244 6.70634C14.9382 6.69581 15.251 6.68174 15.5517 6.64262C15.8412 6.60139 16.1238 6.54746 16.4219 6.52182C16.794 6.48317 17.1708 6.45279 17.5575 6.44674C18.257 6.42493 18.9547 6.39778 19.6602 6.39149C21.1366 6.36773 22.6124 6.34159 24.0712 6.27284C24.6737 6.24645 25.2744 6.21581 25.876 6.18715C25.9471 6.19136 26.0183 6.19619 26.0899 6.20281C26.2227 6.21698 26.3236 6.1996 26.3951 6.16283C26.438 6.16109 26.4806 6.15858 26.5234 6.15684C26.9806 6.13761 27.7088 6.11472 28.1731 6.09925C28.4101 6.09144 28.6468 6.08337 28.8837 6.07528C29.9199 6.03818 30.9569 6.00201 31.9785 5.9304C32.0312 5.92521 32.0976 5.92062 32.165 5.91409C33.1255 5.92418 34.0839 5.92843 35.0393 5.92312C35.4974 5.92631 35.9563 5.93273 36.4155 5.93938C36.5037 5.94067 36.6544 5.99989 36.6798 5.94226C36.6825 5.9361 36.6834 5.93416 36.686 5.92816C36.622 5.92323 36.5923 5.92097 36.5824 5.91556C36.6169 5.91983 36.6514 5.92317 36.686 5.92816L36.6862 5.92815C36.9629 5.30275 36.993 5.32588 36.614 5.25711C36.5862 5.25376 36.5585 5.25126 36.5307 5.24812C36.8838 5.21115 37.238 5.17608 37.5942 5.14479C38.1673 5.09558 38.7489 5.06457 39.3369 5.04979C39.8424 5.03715 40.0212 5.14491 39.4667 4.38014C39.4652 4.37381 39.4636 4.36844 39.4621 4.36199C39.4611 4.35767 39.456 4.35699 39.4501 4.35734C39.4047 4.29864 39.2834 4.35669 39.2004 4.35567C38.7943 4.35511 38.3924 4.36528 37.9926 4.38085C37.974 4.32626 37.9302 4.243 37.8726 4.12776C38.0273 4.08905 38.1637 4.02861 38.2289 3.9249C38.694 3.9282 39.1589 3.93067 39.6244 3.93494C40.3159 3.89627 40.3896 4.03118 39.9549 3.23127C39.9302 3.18595 39.8311 3.21115 39.7697 3.20531C39.745 3.20296 39.7203 3.20126 39.6956 3.19919C39.7096 3.19538 39.7173 3.18884 39.7118 3.17613C39.3797 2.41659 39.4825 2.5083 38.8893 2.51787C38.6368 2.5307 38.3847 2.54413 38.1325 2.5575C38.1025 2.52166 38.0602 2.47776 38.0043 2.42451C38.0216 2.32114 38.0278 2.24401 38.0222 2.18831C38.0798 2.18655 38.1426 2.18462 38.1979 2.18302C38.6469 2.16758 39.0934 2.14539 39.5351 2.11314C39.61 2.10769 39.686 2.10438 39.7585 2.09433C39.8096 2.0872 39.9292 2.10263 39.9049 2.06173C39.7726 1.83927 39.5501 1.63839 39.3681 1.42777C39.3658 1.42806 39.3634 1.42817 39.3611 1.42849C39.3608 1.42747 39.3603 1.42645 39.36 1.42542C39.3594 1.42362 39.3604 1.42225 39.3619 1.42104L39.3619 1.4209C39.3581 1.41653 39.3538 1.41236 39.3501 1.40798C39.1006 1.42967 38.8505 1.44961 38.5998 1.46867C38.6385 1.25757 38.3633 0.96906 37.9571 0.998747C37.2786 1.0356 36.6022 1.07742 35.9244 1.11598C35.932 1.09156 35.9394 1.06698 35.9481 1.04305C35.7533 0.951291 35.5702 0.831695 35.3636 0.767787C35.2542 0.733952 35.1473 0.762657 35.0397 0.762029C34.9024 0.761242 34.7658 0.762715 34.6291 0.763619C34.2932 0.765814 33.9583 0.770366 33.6232 0.774508C33.5399 0.730634 33.4311 0.706512 33.2981 0.716152C32.7964 0.743284 32.295 0.773351 31.7936 0.80259C31.6161 0.805593 31.4385 0.808366 31.261 0.811447C31.2715 0.794318 31.2818 0.777116 31.2931 0.760332C31.1285 0.667707 30.9843 0.546997 30.7995 0.482469C30.7016 0.448306 30.5866 0.477239 30.4802 0.476579C30.3444 0.475749 30.2086 0.477196 30.0729 0.478074C29.5857 0.481153 29.0986 0.487647 28.6115 0.493744C27.4354 0.511931 26.2597 0.534078 25.0837 0.553051C23.878 0.575659 22.6737 0.617125 21.4701 0.665952C21.2663 0.675533 21.0625 0.686225 20.8588 0.696839C19.5804 0.645969 18.2543 0.631091 16.9227 0.652678C13.9131 0.702564 10.9981 0.936581 8.63123 1.31832C8.40589 1.33823 8.18088 1.3608 7.95602 1.38362C7.61603 1.41685 7.27735 1.4541 6.93544 1.47598C6.69479 1.49042 6.45313 1.4951 6.21164 1.49952C6.00613 1.50384 5.80026 1.50537 5.59469 1.50848C5.19512 1.51532 5.18526 1.5549 5.33207 1.91688C5.13543 1.92957 4.94306 1.94232 4.74633 1.95566C4.56782 1.95786 4.452 1.957 4.38451 1.98114C4.32813 1.98573 4.27176 1.99053 4.21525 1.99424C4.19202 1.99568 4.13908 1.97762 4.14539 1.9952C4.19985 2.14716 4.23506 2.25763 4.26568 2.35152C4.26406 2.39165 4.261 2.43859 4.2589 2.48756C4.01493 2.50181 3.7709 2.51559 3.527 2.53038C2.70349 2.57401 2.45679 2.59121 1.66775 2.61884C1.4699 2.62579 1.20553 2.52136 1.07387 2.63452C1.05384 2.65174 1.03653 2.67021 1.02071 2.68935C0.903366 2.64506 0.786521 2.60071 0.798535 2.63549C0.838268 2.75053 0.858713 2.87877 0.89712 2.99866C0.878659 3.10747 0.871003 3.22019 0.847792 3.32397C0.840471 3.35663 0.940901 3.31163 1.04745 3.26279C1.0665 3.28169 1.08716 3.29995 1.11066 3.31646C1.21793 3.39181 1.37416 3.35335 1.52825 3.31954C1.45015 3.46361 1.50793 3.64712 1.68097 3.74258C1.68881 3.84906 1.71876 3.93197 1.76535 3.99751C1.76495 4.01448 1.76556 4.03156 1.76396 4.04828C1.76988 4.04794 1.77581 4.04777 1.78176 4.04752C1.77447 4.09122 1.78142 4.12842 1.80097 4.16021C1.43787 4.1868 1.07637 4.22297 0.714399 4.25662C0.656852 4.26554 0.597921 4.26873 0.538848 4.2715C0.493312 4.26462 0.449005 4.25859 0.434969 4.27709C0.398172 4.27944 0.361602 4.28229 0.325548 4.28739C0.281061 4.29368 0.185816 4.27787 0.193835 4.3128C0.316875 4.84881 0.274232 4.96325 0.434906 4.97428C0.431618 4.98416 0.454322 4.98018 0.481217 4.974C0.534684 4.97298 0.600935 4.9677 0.697024 4.96146C0.80877 4.95063 0.920728 4.94072 1.03259 4.93064C1.01962 5.06514 1.10372 5.20692 1.30948 5.27626C1.25773 5.28299 1.20613 5.29006 1.15477 5.29826C1.10709 5.30589 1.00689 5.28775 1.01313 5.32558C1.14151 6.1035 1.04161 6.01445 1.64122 5.97357C1.84961 5.95637 2.05809 5.93951 2.26643 5.92201C2.37369 5.91298 2.3968 5.91098 2.48526 5.90345C2.46854 5.98178 2.47785 5.99573 2.57732 5.99472C2.5781 6.00174 2.59359 5.99581 2.60451 5.99408C2.61684 5.99376 2.63075 5.99352 2.64538 5.99304C2.68783 5.99235 2.73596 5.99175 2.77055 5.99128C2.80439 5.99083 2.83814 5.99064 2.872 5.99045C3.15226 5.98909 3.43277 5.99008 3.71308 6.00118C4.03863 6.01372 4.36401 6.01565 4.68967 6.02075C4.75188 6.02104 4.81418 6.02079 4.87637 6.02041C4.69523 6.22829 4.86612 6.57541 5.28654 6.5603L5.28653 6.56016C5.30488 6.5595 5.32368 6.55807 5.34295 6.55594C5.37267 6.55276 5.40241 6.54947 5.43212 6.54622C5.64624 6.52513 5.86265 6.51252 6.07883 6.50839C6.32717 6.50429 6.57564 6.5004 6.82396 6.49615C7.08701 6.49171 7.34987 6.48738 7.61295 6.48346C7.87444 6.47925 8.13616 6.47607 8.39745 6.4686C8.71174 6.45806 9.02624 6.44394 9.33634 6.40455C9.63611 6.36302 9.93275 6.3087 10.2362 6.2829C10.3172 6.27461 10.3983 6.26708 10.4795 6.25971C10.5678 6.26087 10.6561 6.26202 10.7444 6.26338C10.8073 6.26365 10.8699 6.26339 10.9325 6.263C10.8144 6.46908 11.095 6.81305 11.5145 6.79798L11.5145 6.79801ZM39.3619 1.42103C39.3639 1.42331 39.3662 1.42549 39.3681 1.42777C39.3858 1.42571 39.4035 1.42383 39.4211 1.42151C39.4386 1.4192 39.3737 1.41156 39.3619 1.42114L39.3619 1.42103ZM39.1703 2.53109C39.1844 2.52255 39.2245 2.52392 39.2501 2.52557C39.2227 2.52454 39.1964 2.52762 39.1703 2.53109Z" fill="#6D22FF"/>
</svg>
