<svg width="271" height="21" viewBox="0 0 271 21" fill="none" xmlns="http://www.w3.org/2000/svg">
<path d="M76.2911 20.1764L76.2899 20.176C76.4137 20.1721 76.5386 20.166 76.666 20.158C76.8624 20.1459 77.0589 20.1336 77.2551 20.1213C78.6744 20.0391 80.1255 19.9799 81.5893 19.9437C83.2721 19.904 84.9559 19.8647 86.6383 19.8246C88.4206 19.7821 90.2021 19.7401 91.9856 19.6991C93.7577 19.6575 95.5326 19.6186 97.2974 19.5682C99.4174 19.5033 101.532 19.4286 103.572 19.2856C105.537 19.138 107.46 18.9558 109.478 18.8506C112 18.7008 114.551 18.5735 117.161 18.5128C121.887 18.3726 126.602 18.2179 131.363 18.1203C141.329 17.8866 151.293 17.6463 161.154 17.2893C165.227 17.1475 169.288 16.994 173.355 16.846C173.833 16.8496 174.312 16.855 174.793 16.8653C175.685 16.8896 176.371 16.8298 176.864 16.7194C177.154 16.7096 177.442 16.6978 177.731 16.6881C180.821 16.5827 185.74 16.4363 188.877 16.3405C190.478 16.2919 192.078 16.2426 193.678 16.1932C200.679 15.9723 207.686 15.7539 214.598 15.4386C214.955 15.4182 215.405 15.3979 215.861 15.3721C222.338 15.2911 228.802 15.1941 235.248 15.0709C238.338 15.0278 241.431 14.9935 244.527 14.9599C245.122 14.9535 246.121 15.1012 246.31 14.9379C246.33 14.9205 246.336 14.915 246.356 14.898C245.925 14.8915 245.726 14.8886 245.66 14.8747C245.892 14.8826 246.123 14.888 246.356 14.898L246.357 14.8979C248.41 13.1261 248.606 13.187 246.07 13.0387C245.883 13.0325 245.697 13.0287 245.511 13.0231C247.904 12.8801 250.304 12.7423 252.716 12.6148C256.596 12.4128 260.529 12.2605 264.5 12.1526C267.914 12.06 269.088 12.3396 265.575 10.2743C265.567 10.2568 265.558 10.2421 265.549 10.2243C265.544 10.2124 265.51 10.2111 265.47 10.2127C265.181 10.0545 264.346 10.2298 263.786 10.2364C261.047 10.2809 258.332 10.3549 255.631 10.4436C255.522 10.2938 255.251 10.0671 254.897 9.75288C255.952 9.62759 256.89 9.44391 257.361 9.1479C260.498 9.10427 263.633 9.05838 266.772 9.0174C271.448 8.83128 271.905 9.19835 269.211 7.02163C269.058 6.89829 268.382 6.97967 267.969 6.97041C267.803 6.96668 267.638 6.96473 267.472 6.96179C267.567 6.94959 267.621 6.93051 267.588 6.89577C265.574 4.81973 266.24 5.06328 262.235 5.15726C260.528 5.22164 258.824 5.28761 257.118 5.35346C256.926 5.25712 256.654 5.13975 256.293 4.99791C256.441 4.70826 256.506 4.49293 256.484 4.33855C256.874 4.3271 257.298 4.31461 257.671 4.3039C260.705 4.20993 263.723 4.0975 266.713 3.9576C267.219 3.93393 267.733 3.91608 268.225 3.8799C268.572 3.85424 269.375 3.8836 269.223 3.77254C268.397 3.16849 266.955 2.6347 265.791 2.06924C265.775 2.07029 265.758 2.07087 265.743 2.07204C265.741 2.06922 265.738 2.06643 265.736 2.06361C265.733 2.05867 265.74 2.05473 265.75 2.05121L265.75 2.05083C265.726 2.03909 265.699 2.02795 265.675 2.0162C263.986 2.10487 262.292 2.18877 260.595 2.27027C260.919 1.6784 259.149 0.906743 256.4 1.03547C251.811 1.21506 247.237 1.40824 242.653 1.59249C242.711 1.52367 242.768 1.45443 242.834 1.38685C241.547 1.1536 240.348 0.841561 238.973 0.687163C238.246 0.605422 237.515 0.697449 236.79 0.707913C235.864 0.721305 234.942 0.740923 234.019 0.758958C231.753 0.803189 229.492 0.853886 227.23 0.903457C226.682 0.790815 225.955 0.736032 225.055 0.777961C221.662 0.91043 218.271 1.05102 214.88 1.18931C213.681 1.21783 212.483 1.2457 211.284 1.27443C211.36 1.22557 211.435 1.17652 211.516 1.12854C210.433 0.889453 209.497 0.569891 208.269 0.4113C207.619 0.327338 206.835 0.42091 206.117 0.43115C205.201 0.444258 204.285 0.463702 203.369 0.481557C200.081 0.545442 196.793 0.618809 193.506 0.691077C185.567 0.875201 177.629 1.07032 169.69 1.25662C161.55 1.45642 153.413 1.70854 145.279 1.98106C143.901 2.03087 142.524 2.08375 141.146 2.13642C132.537 2.13999 123.596 2.24913 114.607 2.46038C94.2892 2.94088 74.555 3.92307 58.4747 5.25413C56.9486 5.3351 55.424 5.42347 53.9003 5.51251C51.5968 5.64358 49.301 5.78569 46.988 5.8854C45.3603 5.9529 43.7287 5.99337 42.0983 6.03308C40.7107 6.06843 39.3214 6.09608 37.9337 6.12806C35.2362 6.19246 35.1579 6.30372 36.0403 7.29442C34.7101 7.35206 33.4085 7.40937 32.0775 7.46883C30.8726 7.49522 30.0915 7.50599 29.629 7.58084C29.2473 7.60001 28.8656 7.61976 28.4833 7.6365C28.3262 7.64315 27.9744 7.5989 28.0117 7.64711C28.3338 8.06382 28.5384 8.36725 28.717 8.62507C28.6941 8.73693 28.6594 8.86791 28.6307 9.00441C26.9806 9.07176 25.3303 9.13782 23.6806 9.20668C18.1123 9.42159 16.4429 9.49746 11.1119 9.66393C9.77509 9.70573 8.02282 9.44512 7.1009 9.775C6.96065 9.82519 6.83837 9.87854 6.726 9.9336C5.94758 9.82366 5.17254 9.71353 5.24323 9.80895C5.47698 10.1246 5.57666 10.4791 5.80003 10.8084C5.64304 11.1133 5.55776 11.4279 5.37023 11.7193C5.31112 11.8111 6.00203 11.6744 6.73537 11.5264C6.85823 11.5769 6.99219 11.6253 7.14579 11.6686C7.84692 11.8661 8.91233 11.7413 9.96184 11.6298C9.39205 12.0396 9.72713 12.5437 10.866 12.7897C10.8871 13.0852 11.0644 13.3125 11.3592 13.4896C11.3514 13.5369 11.3505 13.5843 11.3347 13.631C11.3747 13.6294 11.4148 13.6283 11.455 13.6269C11.3928 13.7493 11.4286 13.8521 11.551 13.9383C9.09361 14.0535 6.64421 14.1952 4.19232 14.33C3.80144 14.3613 3.40296 14.3769 3.00363 14.3913C2.6985 14.3774 2.40142 14.3656 2.30122 14.4187C2.05229 14.4294 1.80472 14.4415 1.56 14.4598C1.258 14.4823 0.620195 14.4491 0.663895 14.5454C1.33409 16.0231 1.0123 16.3465 2.09293 16.3589C2.06778 16.3868 2.22215 16.3731 2.4054 16.3529C2.76638 16.344 3.21489 16.3217 3.86496 16.2935C4.62204 16.2506 5.38022 16.2104 6.13788 16.1696C6.01027 16.5454 6.53534 16.9304 7.90265 17.1C7.55156 17.1246 7.20137 17.1501 6.85245 17.1788C6.52859 17.2054 5.858 17.1663 5.88884 17.2709C6.52289 19.4212 5.87553 19.1847 9.93266 19.0029C11.3436 18.9314 12.755 18.8608 14.1657 18.7884C14.8919 18.7511 15.0484 18.7429 15.6474 18.712C15.5112 18.9318 15.5699 18.9696 16.2412 18.9555C16.2444 18.9749 16.3506 18.9567 16.4248 18.9506C16.5081 18.9483 16.602 18.9461 16.7008 18.9431C16.9875 18.9363 17.3122 18.9292 17.5457 18.924C17.7742 18.9189 18.0019 18.9145 18.2304 18.9102C20.1214 18.8746 22.0134 18.8455 23.901 18.8445C26.0934 18.8425 28.2878 18.8109 30.4832 18.7881C30.9028 18.7819 31.3231 18.7741 31.7427 18.766C30.4588 19.3651 31.5081 20.3117 34.3487 20.2219L34.3487 20.2215C34.4727 20.2176 34.6 20.2115 34.7306 20.2033C34.932 20.1911 35.1336 20.1786 35.335 20.1662C36.7857 20.0832 38.2494 20.0235 39.709 19.9875C41.3854 19.9479 43.0628 19.9088 44.7392 19.8688C46.515 19.8266 48.2896 19.7847 50.0655 19.7439C51.8307 19.7025 53.5972 19.664 55.362 19.6135C57.4853 19.5485 59.6112 19.4735 61.7148 19.3287C63.7494 19.1791 65.7667 18.9942 67.8215 18.888C68.3702 18.8557 68.9198 18.8256 69.4696 18.7958C70.0648 18.789 70.66 18.7822 71.2557 18.776C71.6797 18.7696 72.1021 18.7617 72.5247 18.7535C71.6666 19.3405 73.4568 20.2659 76.2909 20.1763L76.2911 20.1764ZM265.75 2.05118C265.763 2.05728 265.778 2.06311 265.791 2.06922C265.91 2.06148 266.031 2.05424 266.15 2.0458C266.268 2.03739 265.833 2.02346 265.751 2.05147L265.75 2.05118ZM264.127 5.16213C264.225 5.13679 264.495 5.13604 264.667 5.13772C264.483 5.13796 264.304 5.14953 264.127 5.16213Z" fill="#D2E823"/>
</svg>
