<svg width="277" height="20" viewBox="0 0 277 20" fill="none" xmlns="http://www.w3.org/2000/svg">
<path d="M77.4586 18.3679L77.4574 18.3677C77.5839 18.3627 77.7117 18.356 77.842 18.3477C78.043 18.3352 78.244 18.3225 78.4449 18.3098C79.8969 18.2234 81.3807 18.1545 82.8769 18.1035C84.5967 18.0462 86.3175 17.9893 88.0369 17.9317C89.8585 17.8708 91.6792 17.8101 93.5019 17.7503C95.313 17.6902 97.1268 17.6322 98.9307 17.5653C101.098 17.4816 103.26 17.3902 105.348 17.2466C107.359 17.1005 109.328 16.9281 111.393 16.8143C113.973 16.6579 116.582 16.5186 119.25 16.4305C124.081 16.2473 128.901 16.0529 133.766 15.9025C143.952 15.5646 154.135 15.2216 164.217 14.7889C168.381 14.6146 172.533 14.4314 176.691 14.2523C177.18 14.2477 177.668 14.2444 178.16 14.245C179.07 14.2502 179.772 14.1927 180.279 14.0986C180.575 14.0865 180.87 14.0728 181.166 14.0607C184.325 13.9301 189.353 13.7391 192.56 13.6154C194.196 13.5524 195.831 13.4889 197.467 13.4254C204.624 13.1437 211.786 12.8638 218.856 12.5096C219.221 12.4881 219.681 12.4652 220.148 12.4379C226.765 12.2738 233.369 12.0974 239.957 11.9007C243.113 11.8189 246.274 11.744 249.436 11.6696C250.044 11.6553 251.06 11.7554 251.257 11.6247C251.278 11.6107 251.285 11.6063 251.306 11.5927C250.867 11.5943 250.663 11.5951 250.596 11.5853C250.833 11.5879 251.069 11.5885 251.306 11.5927L251.307 11.5926C253.459 10.174 253.658 10.2186 251.072 10.142C250.882 10.14 250.692 10.1399 250.502 10.1385C252.95 9.98936 255.406 9.8442 257.873 9.70691C261.842 9.48847 265.864 9.30809 269.922 9.16193C273.412 9.03639 274.602 9.23697 271.08 7.67514C271.072 7.66163 271.063 7.65023 271.055 7.63643C271.05 7.6272 271.015 7.6267 270.974 7.6286C270.684 7.50926 269.825 7.65949 269.254 7.67333C266.455 7.75078 263.68 7.85085 260.918 7.96229C260.812 7.84674 260.542 7.67351 260.19 7.43312C261.272 7.31866 262.236 7.16032 262.726 6.92133C265.931 6.83841 269.134 6.75375 272.341 6.67288C277.123 6.4545 277.578 6.73468 274.895 5.07298C274.743 4.97882 274.05 5.05303 273.629 5.05219C273.459 5.05186 273.29 5.05291 273.121 5.05318C273.218 5.04216 273.274 5.02638 273.241 4.99972C271.25 3.40623 271.923 3.58649 267.829 3.72231C266.084 3.79923 264.341 3.87736 262.598 3.95541C262.405 3.883 262.131 3.79537 261.766 3.68998C261.926 3.46099 261.999 3.29146 261.982 3.17097C262.38 3.15595 262.813 3.13958 263.195 3.12539C266.296 3.00468 269.383 2.86976 272.44 2.71378C272.958 2.68738 273.484 2.66542 273.987 2.62946C274.343 2.60397 275.161 2.61448 275.009 2.52993C274.184 2.07002 272.729 1.67466 271.558 1.25022C271.541 1.25129 271.525 1.25199 271.509 1.25315C271.507 1.25097 271.504 1.24883 271.502 1.24665C271.499 1.24284 271.507 1.23964 271.517 1.23672L271.517 1.23643C271.493 1.22761 271.465 1.21933 271.441 1.2105C269.713 1.30616 267.981 1.39816 266.246 1.48832C266.595 1.02007 264.811 0.44366 262 0.587149C257.308 0.799041 252.63 1.02137 247.943 1.23684C248.004 1.18207 248.065 1.12699 248.135 1.07307C246.828 0.910534 245.612 0.684964 244.214 0.585496C243.473 0.532838 242.724 0.616217 241.983 0.635684C241.037 0.660559 240.095 0.690254 239.152 0.718711C236.836 0.788559 234.526 0.863392 232.214 0.937354C231.657 0.85773 230.917 0.826151 229.996 0.87296C226.527 1.02939 223.06 1.19214 219.592 1.3531C218.367 1.39405 217.142 1.43451 215.917 1.47562C215.996 1.4362 216.075 1.39665 216.158 1.35784C215.06 1.18755 214.114 0.95201 212.865 0.84698C212.204 0.791376 211.4 0.8768 210.667 0.89597C209.731 0.920471 208.795 0.949938 207.858 0.978154C204.499 1.07927 201.139 1.18781 197.779 1.29548C189.665 1.56302 181.552 1.83914 173.439 2.10839C165.119 2.39132 156.802 2.71514 148.486 3.0549C147.077 3.11531 145.669 3.17811 144.26 3.24075C135.469 3.37739 126.334 3.60182 117.147 3.90692C96.3817 4.59888 76.1969 5.67441 59.7328 6.96616C58.1718 7.05326 56.6119 7.14613 55.0531 7.2395C52.6965 7.37789 50.3474 7.52481 47.982 7.63881C46.3176 7.71695 44.65 7.77398 42.9837 7.83041C41.5654 7.87966 40.1457 7.92289 38.7275 7.9695C35.9707 8.06184 35.8871 8.15014 36.7572 8.91178C35.3968 8.97757 34.0658 9.04267 32.7046 9.10989C31.4732 9.14929 30.6752 9.16985 30.2006 9.23562C29.8101 9.25656 29.4197 9.27795 29.0287 9.297C28.868 9.30465 28.5102 9.27549 28.5468 9.31264C28.8626 9.63376 29.062 9.86806 29.2362 10.0671C29.2093 10.155 29.1698 10.258 29.1362 10.3653C27.4489 10.4437 25.7614 10.521 24.0744 10.6006C18.381 10.8553 16.6737 10.9407 11.2241 11.1538C9.85755 11.2073 8.07619 11.0306 7.1243 11.3031C6.97948 11.3446 6.85294 11.3882 6.73644 11.4331C5.94491 11.3591 5.15689 11.285 5.22606 11.3586C5.45484 11.602 5.54549 11.8779 5.76322 12.1322C5.59331 12.3732 5.49635 12.6207 5.29566 12.8518C5.23238 12.9245 5.94231 12.8068 6.69589 12.6795C6.81979 12.7171 6.95505 12.753 7.11054 12.7844C7.8204 12.9281 8.91238 12.8139 9.98773 12.7103C9.39293 13.0398 9.71927 13.4292 10.8746 13.604C10.8869 13.8349 11.0608 14.0101 11.3563 14.1441C11.3469 14.1812 11.3444 14.2184 11.3268 14.2552C11.3677 14.2533 11.4087 14.2518 11.4498 14.2501C11.3824 14.3469 11.4157 14.4267 11.538 14.4923C9.02478 14.6207 6.51882 14.7697 4.01055 14.9133C3.61037 14.9439 3.20291 14.9623 2.79464 14.9798C2.48346 14.9736 2.18042 14.969 2.07643 15.0121C1.82186 15.0243 1.56866 15.0377 1.31815 15.0558C1.00902 15.0781 0.358712 15.0621 0.400288 15.1367C1.03825 16.2828 0.699482 16.5409 1.80267 16.5338C1.77614 16.556 1.93418 16.5429 2.12201 16.5242C2.49096 16.5117 2.94966 16.4873 3.61445 16.4551C4.38896 16.4098 5.16456 16.3665 5.93959 16.3228C5.79743 16.6189 6.32157 16.912 7.71263 17.0235C7.35331 17.0482 6.99485 17.0737 6.6376 17.1015C6.306 17.1274 5.62241 17.1072 5.65062 17.1886C6.2305 18.8616 5.5768 18.6866 9.72594 18.4812C11.1691 18.4033 12.6128 18.3261 14.0557 18.2476C14.7986 18.2071 14.9586 18.1982 15.5713 18.1647C15.4254 18.3389 15.4841 18.3675 16.1701 18.3461C16.1727 18.3612 16.2818 18.3453 16.3578 18.3394C16.4429 18.3363 16.5389 18.3331 16.6399 18.3292C16.9329 18.3195 17.2648 18.3088 17.5034 18.3011C17.7369 18.2936 17.9696 18.2866 18.203 18.2796C20.1353 18.2224 22.0685 18.1702 23.9963 18.1401C26.2354 18.1044 28.4775 18.0456 30.7202 17.9936C31.1489 17.9822 31.5785 17.9696 32.0073 17.9567C30.6772 18.4455 31.7191 19.1701 34.6229 19.0556L34.6229 19.0554C34.7496 19.0504 34.8798 19.0436 35.0135 19.0352C35.2196 19.0225 35.4259 19.0096 35.6319 18.9967C37.1161 18.9092 38.6127 18.8398 40.1045 18.7888C41.8178 18.7318 43.5321 18.6752 45.2454 18.6178C47.0604 18.5571 48.8739 18.4968 50.6889 18.4372C52.4929 18.3774 54.2982 18.3197 56.1022 18.2528C58.2727 18.1689 60.4461 18.0772 62.599 17.9311C64.6816 17.7824 66.7476 17.6064 68.8495 17.4913C69.4108 17.4575 69.9731 17.4253 70.5355 17.3935C71.1435 17.3789 71.7517 17.3643 72.3602 17.3502C72.7934 17.3386 73.225 17.3259 73.6569 17.3129C72.7621 17.7856 74.5612 18.482 77.4584 18.3678L77.4586 18.3679ZM271.517 1.23671C271.53 1.24128 271.545 1.24561 271.558 1.2502C271.68 1.24228 271.803 1.23474 271.925 1.22629C272.047 1.21786 271.603 1.21372 271.517 1.23693L271.517 1.23671ZM269.762 3.6967C269.862 3.67534 270.138 3.67056 270.314 3.6692C270.125 3.67226 269.943 3.68409 269.762 3.6967Z" fill="#E98363"/>
</svg>
