<svg width="166" height="14" viewBox="0 0 166 14" fill="none" xmlns="http://www.w3.org/2000/svg">
<path d="M46.7742 13.7863L46.7735 13.786C46.8492 13.7836 46.9257 13.7797 47.0036 13.7745C47.1237 13.7666 47.2439 13.7585 47.364 13.7505C48.2322 13.6972 49.12 13.6597 50.0158 13.638C51.0456 13.6142 52.0759 13.5909 53.1054 13.5669C54.1961 13.5416 55.2862 13.5164 56.3776 13.4921C57.462 13.4673 58.5481 13.4444 59.628 13.4135C60.9253 13.3735 62.2193 13.3268 63.4668 13.2331C64.6689 13.1361 65.8446 13.0153 67.0797 12.9475C68.6221 12.8501 70.1828 12.7682 71.7801 12.7321C74.6718 12.646 77.5566 12.5498 80.4703 12.4929C86.5689 12.3536 92.6658 12.2099 98.6998 11.9859C101.192 11.8973 103.677 11.8007 106.165 11.7077C106.458 11.7112 106.751 11.7159 107.045 11.724C107.591 11.7425 108.011 11.703 108.312 11.6283C108.489 11.6223 108.666 11.6148 108.843 11.6087C110.733 11.543 113.743 11.453 115.663 11.394C116.642 11.364 117.621 11.3335 118.6 11.303C122.884 11.1664 127.171 11.0314 131.401 10.8299C131.619 10.8167 131.894 10.8037 132.173 10.7869C136.137 10.745 140.093 10.6921 144.038 10.6211C145.929 10.598 147.822 10.5811 149.716 10.5645C150.081 10.5613 150.693 10.6646 150.807 10.5532C150.819 10.5413 150.823 10.5375 150.835 10.5259C150.572 10.5206 150.45 10.5182 150.409 10.5085C150.551 10.5144 150.693 10.5186 150.835 10.5259L150.836 10.5259C152.083 9.31643 152.203 9.35859 150.65 9.25165C150.536 9.24705 150.422 9.24405 150.308 9.23983C151.772 9.14689 153.24 9.05751 154.715 8.97521C157.089 8.84494 159.496 8.7488 161.926 8.6832C164.015 8.62692 164.735 8.8209 162.574 7.39878C162.568 7.38683 162.563 7.3767 162.557 7.36449C162.554 7.35632 162.533 7.35535 162.509 7.35639C162.331 7.24741 161.821 7.36577 161.478 7.36911C159.802 7.3939 158.141 7.43887 156.488 7.494C156.42 7.39116 156.253 7.23528 156.035 7.01932C156.68 6.9357 157.253 6.81184 157.54 6.61006C159.459 6.58673 161.378 6.56184 163.299 6.54033C166.16 6.42261 166.442 6.67501 164.781 5.17831C164.687 5.0935 164.273 5.14784 164.021 5.14063C163.919 5.13773 163.818 5.13605 163.716 5.13369C163.774 5.12553 163.807 5.11257 163.787 5.08871C162.543 3.6624 162.952 3.83063 160.501 3.88663C159.457 3.92717 158.414 3.9688 157.37 4.01034C157.252 3.94394 157.085 3.86298 156.863 3.76506C156.952 3.56696 156.991 3.41959 156.977 3.3138C157.215 3.30677 157.474 3.2991 157.703 3.29254C159.559 3.23451 161.406 3.1638 163.235 3.07422C163.545 3.05906 163.859 3.04791 164.16 3.02415C164.373 3.0073 164.864 3.02909 164.77 2.9527C164.261 2.53719 163.376 2.16853 162.66 1.77875C162.651 1.77944 162.641 1.77981 162.631 1.78057C162.63 1.77864 162.628 1.77672 162.627 1.77478C162.625 1.77139 162.629 1.76871 162.636 1.76632L162.636 1.76606C162.621 1.75796 162.604 1.75028 162.589 1.74218C161.556 1.79939 160.52 1.85332 159.482 1.9056C159.676 1.50085 158.589 0.96856 156.907 1.051C154.099 1.16442 151.3 1.2872 148.496 1.40383C148.531 1.35681 148.566 1.3095 148.606 1.26335C147.817 1.10088 147.081 0.884622 146.239 0.775986C145.793 0.718472 145.347 0.779986 144.903 0.785639C144.336 0.792877 143.772 0.804388 143.207 0.814815C141.82 0.840379 140.437 0.870381 139.053 0.899611C138.716 0.821304 138.271 0.78226 137.72 0.809099C135.645 0.892753 133.57 0.981969 131.495 1.06962C130.762 1.08664 130.028 1.10324 129.295 1.12041C129.341 1.0871 129.387 1.05366 129.436 1.02096C128.772 0.854919 128.197 0.634061 127.444 0.522859C127.046 0.463987 126.567 0.526445 126.128 0.53196C125.567 0.539026 125.006 0.550431 124.446 0.560747C122.434 0.597639 120.422 0.641025 118.41 0.683658C113.552 0.793196 108.694 0.910262 103.836 1.02129C98.8549 1.14115 93.8764 1.29685 88.8993 1.46653C88.0562 1.49777 87.2133 1.53112 86.3705 1.56432C81.1014 1.54877 75.6295 1.60485 70.1287 1.73077C57.6956 2.01746 45.6224 2.64903 35.7876 3.52721C34.854 3.57949 33.9213 3.63684 32.9892 3.69464C31.5801 3.77961 30.1757 3.87217 28.7605 3.93563C27.7646 3.97847 26.7662 4.00278 25.7685 4.02657C24.9194 4.04789 24.0692 4.06393 23.22 4.08294C21.5694 4.12141 21.522 4.19746 22.0676 4.87794C21.2537 4.91464 20.4574 4.95119 19.643 4.98913C18.9057 5.00469 18.4277 5.01044 18.1451 5.06074C17.9115 5.07308 17.678 5.08581 17.4441 5.09648C17.3479 5.1007 17.1324 5.06966 17.1555 5.10276C17.3549 5.38888 17.4818 5.59716 17.5925 5.77414C17.5791 5.85071 17.5586 5.94037 17.5418 6.03381C16.5322 6.0765 15.5225 6.1183 14.5131 6.16202C11.1062 6.2976 10.0848 6.34609 6.82282 6.44898C6.00486 6.47482 4.93093 6.29263 4.36848 6.51668C4.28291 6.55077 4.20836 6.58706 4.13987 6.62454C3.66284 6.5476 3.18787 6.47054 3.23166 6.53605C3.37644 6.75276 3.4394 6.99584 3.57792 7.22186C3.4835 7.4304 3.43305 7.64569 3.31988 7.84495C3.2842 7.90766 3.70632 7.8155 4.15436 7.71565C4.22984 7.75045 4.3121 7.78393 4.40633 7.81389C4.83656 7.95066 5.48798 7.86742 6.12974 7.79317C5.78323 8.0727 5.99107 8.41873 6.68947 8.58965C6.70402 8.79207 6.81381 8.94816 6.99521 9.07008C6.9907 9.10245 6.99038 9.13495 6.98098 9.16694C7.00546 9.1659 7.02997 9.16521 7.05461 9.16434C7.01718 9.24809 7.03967 9.31854 7.11504 9.37788C5.61162 9.45167 4.1132 9.54361 2.61324 9.63079C2.37417 9.65145 2.13037 9.66128 1.88603 9.67033C1.69919 9.66012 1.51729 9.65144 1.45625 9.68759C1.30395 9.6944 1.15249 9.70217 1.0028 9.71418C0.818094 9.72901 0.427551 9.70493 0.454811 9.77099C0.873131 10.7846 0.67793 11.0054 1.3394 11.0162C1.32417 11.0353 1.41856 11.0262 1.53063 11.0127C1.75153 11.0074 2.02592 10.9931 2.42365 10.9751C2.88679 10.9473 3.35064 10.9213 3.81414 10.895C3.7381 11.1521 4.06158 11.417 4.89939 11.536C4.68463 11.5521 4.47045 11.5689 4.25703 11.5878C4.05895 11.6054 3.64829 11.5772 3.66775 11.6489C4.06763 13.1232 3.6701 12.9598 6.15232 12.8438C7.01548 12.7977 7.87899 12.7523 8.742 12.7057C9.18633 12.6817 9.28203 12.6764 9.64848 12.6564C9.56636 12.8067 9.60247 12.8327 10.0133 12.8245C10.0153 12.8378 10.0803 12.8255 10.1256 12.8215C10.1766 12.8201 10.2341 12.8188 10.2945 12.8169C10.4699 12.8129 10.6687 12.8087 10.8116 12.8056C10.9514 12.8026 11.0907 12.8001 11.2305 12.7976C12.3877 12.7771 13.5456 12.7612 14.701 12.7645C16.0428 12.7676 17.3858 12.7506 18.7293 12.7396C18.9861 12.7362 19.2434 12.7317 19.5001 12.727C18.7176 13.1347 19.365 13.7853 21.1032 13.7298L21.1031 13.7295C21.179 13.7271 21.2569 13.7232 21.3368 13.7179C21.46 13.7099 21.5833 13.7018 21.7065 13.6937C22.594 13.6399 23.4895 13.6021 24.3827 13.5804C25.4086 13.5568 26.435 13.5336 27.4608 13.5097C28.5475 13.4844 29.6334 13.4595 30.7202 13.4352C31.8004 13.4106 32.8814 13.3878 33.9613 13.357C35.2605 13.3169 36.5612 13.2699 37.848 13.1751C39.0925 13.0769 40.3262 12.9545 41.5833 12.886C41.9189 12.865 42.2551 12.8455 42.5915 12.8263C42.9557 12.8229 43.32 12.8195 43.6846 12.8164C43.944 12.813 44.2025 12.8085 44.4611 12.8037C43.9392 13.204 45.04 13.8416 46.7741 13.7862L46.7742 13.7863ZM162.636 1.7663C162.643 1.77051 162.653 1.77453 162.66 1.77874C162.733 1.77369 162.807 1.76898 162.88 1.76345C162.952 1.75793 162.686 1.74749 162.636 1.7665L162.636 1.7663ZM161.659 3.89393C161.719 3.87677 161.884 3.87682 161.989 3.87833C161.877 3.87811 161.767 3.88566 161.659 3.89393Z" fill="#FE5B25"/>
</svg>
