<svg width="250" height="13" viewBox="0 0 250 13" fill="none" xmlns="http://www.w3.org/2000/svg">
<path d="M69.9373 11.937C70.0517 11.9336 70.1672 11.9291 70.2851 11.9237C70.4668 11.9155 70.6486 11.9071 70.8302 11.8988C72.1433 11.8417 73.4849 11.7951 74.8376 11.759C76.3924 11.7185 77.9482 11.6782 79.5027 11.6375C81.1496 11.5944 82.7957 11.5515 84.4436 11.5091C86.0809 11.4665 87.7208 11.4252 89.3518 11.3786C91.3111 11.3206 93.2661 11.258 95.1539 11.1643C96.9732 11.0694 98.7543 10.9589 100.622 10.8832C102.954 10.7801 105.314 10.6871 107.726 10.6247C112.093 10.4975 116.451 10.3635 120.85 10.2559C130.058 10.0166 139.265 9.77433 148.381 9.47853C152.146 9.35899 155.9 9.23415 159.659 9.11177C160.101 9.10727 160.543 9.10357 160.987 9.10216C161.809 9.10203 162.444 9.06501 162.904 9.0067C163.171 8.99837 163.437 8.98908 163.705 8.98075C166.561 8.89109 171.108 8.75843 174.007 8.6727C175.486 8.62906 176.965 8.58512 178.444 8.54112C184.914 8.34641 191.39 8.15281 197.783 7.91489C198.113 7.90066 198.529 7.88527 198.951 7.8672C204.933 7.74508 210.904 7.61557 216.859 7.47395C219.713 7.41357 222.57 7.35733 225.429 7.30134C225.978 7.29059 226.895 7.34704 227.075 7.26786C227.094 7.2594 227.1 7.25673 227.119 7.24848C226.722 7.25104 226.538 7.25226 226.478 7.24657C226.692 7.24729 226.905 7.24682 227.119 7.24848L227.12 7.24845C229.076 6.38904 229.255 6.41513 226.919 6.37833C226.746 6.37786 226.575 6.37849 226.403 6.37828C228.617 6.28001 230.837 6.18409 233.068 6.09285C236.658 5.94753 240.294 5.82487 243.963 5.72262C247.118 5.63478 248.192 5.75096 245.02 4.82585C245.013 4.81777 245.005 4.81095 244.998 4.8027C244.993 4.79717 244.962 4.797 244.925 4.79828C244.664 4.72767 243.886 4.82093 243.37 4.83129C240.839 4.88778 238.331 4.95777 235.834 5.03455C235.738 4.96555 235.496 4.86251 235.18 4.71945C236.158 4.64686 237.03 4.54835 237.475 4.40312C240.373 4.34189 243.268 4.27962 246.167 4.21961C250.491 4.07142 250.901 4.23801 248.488 3.24994C248.351 3.19395 247.724 3.24098 247.343 3.24199C247.19 3.24239 247.037 3.24363 246.884 3.2444C246.972 3.23743 247.023 3.22776 246.993 3.21187C245.205 2.26229 245.811 2.36811 242.111 2.46427C240.533 2.51669 238.957 2.56982 237.38 2.62291C237.207 2.58012 236.96 2.52849 236.631 2.46652C236.777 2.32847 236.844 2.22643 236.83 2.15415C237.19 2.14371 237.581 2.13233 237.927 2.12245C240.73 2.0389 243.521 1.94687 246.286 1.84231C246.754 1.82461 247.229 1.80955 247.684 1.78615C248.006 1.76958 248.745 1.77297 248.609 1.72275C247.867 1.44957 246.555 1.21741 245.499 0.966766C245.484 0.967467 245.469 0.967951 245.454 0.968706L245.449 0.964827C245.446 0.962545 245.453 0.960599 245.462 0.958812C245.44 0.953603 245.415 0.948552 245.394 0.943338C243.831 1.00694 242.265 1.06836 240.696 1.1287C241.015 0.846319 239.407 0.506628 236.865 0.602818C232.622 0.746792 228.392 0.896983 224.154 1.04309C224.21 1.00999 224.265 0.976705 224.329 0.944084C223.149 0.851168 222.052 0.720081 220.788 0.66536C220.119 0.636391 219.442 0.689123 218.772 0.703458C217.917 0.721771 217.065 0.742967 216.212 0.763419C214.119 0.813625 212.03 0.866807 209.94 0.919469C209.437 0.873654 208.768 0.857339 207.936 0.888731C204.799 0.995038 201.664 1.10513 198.529 1.21416C197.421 1.24312 196.314 1.27179 195.206 1.30085C195.278 1.2769 195.349 1.25287 195.425 1.22927C194.434 1.13096 193.58 0.992923 192.452 0.934327C191.855 0.903306 191.128 0.957463 190.465 0.971592C189.619 0.989643 188.772 1.01068 187.926 1.03096C184.889 1.10367 181.851 1.18084 178.813 1.25749C171.478 1.44709 164.143 1.64185 156.808 1.83248C149.286 2.03207 141.766 2.25619 134.247 2.48988C132.974 2.53117 131.7 2.57391 130.426 2.61655C122.479 2.72999 114.221 2.89736 105.915 3.11335C87.1416 3.60296 68.8898 4.32079 53.9993 5.15514C52.5877 5.21301 51.1772 5.27433 49.7675 5.33596C47.6365 5.42747 45.5123 5.52406 43.3735 5.60096C41.8686 5.65381 40.3609 5.69401 38.8544 5.73384C37.5721 5.76848 36.2886 5.7995 35.0064 5.83255C32.514 5.89784 32.4379 5.95115 33.2187 6.40531C31.9887 6.44967 30.7852 6.49351 29.5543 6.53873C28.4411 6.56678 27.7197 6.58198 27.2902 6.62316C26.9371 6.63713 26.5841 6.65136 26.2306 6.6642C26.0853 6.66936 25.7621 6.65313 25.7949 6.67531C26.078 6.86697 26.2565 7.00693 26.4126 7.12578C26.3876 7.17865 26.3512 7.24066 26.32 7.30519C24.7944 7.35827 23.2686 7.41074 21.7432 7.46452C16.5953 7.63782 15.0516 7.69515 10.1244 7.8426C8.88889 7.8796 7.2801 7.77986 6.41777 7.94687C6.28657 7.97228 6.17187 7.99895 6.06624 8.02628C5.35136 7.98472 4.63964 7.94302 4.70164 7.98695C4.90666 8.13226 4.9866 8.2976 5.18156 8.44946C5.02624 8.59481 4.93682 8.74375 4.75376 8.88317C4.69605 8.92705 5.33854 8.85385 6.02058 8.77478C6.1323 8.79688 6.25431 8.81792 6.39463 8.83627C7.03519 8.92 8.023 8.84752 8.99571 8.78145C8.4557 8.98146 8.74784 9.21404 9.7908 9.31489C9.80024 9.45347 9.95622 9.55801 10.2223 9.63741C10.2135 9.65973 10.211 9.68205 10.1949 9.70422C10.2319 9.70293 10.2689 9.70188 10.3061 9.7007C10.2444 9.75906 10.274 9.80688 10.384 9.84583C8.11153 9.93188 5.84542 10.0303 3.57728 10.1254C3.21536 10.1453 2.84696 10.1577 2.47782 10.1697C2.1966 10.1671 1.92275 10.1654 1.82844 10.1917C1.59827 10.1999 1.3693 10.2088 1.14274 10.2206C0.863194 10.2351 0.275505 10.2278 0.312549 10.2725C0.880877 10.9583 0.572815 11.1145 1.56998 11.1063C1.54583 11.1197 1.6888 11.1113 1.85869 11.0994C2.19225 11.0905 2.60704 11.0742 3.20813 11.0525C3.9085 11.0226 4.60983 10.9938 5.31067 10.9648C5.18005 11.1431 5.65166 11.3172 6.90816 11.3792C6.58319 11.3953 6.25904 11.4118 5.93593 11.4298C5.63604 11.4465 5.01831 11.4369 5.04323 11.4856C5.55526 12.488 4.96569 12.3853 8.71737 12.2471C10.0223 12.1952 11.3277 12.1437 12.6325 12.0914C13.3043 12.0644 13.449 12.0586 14.003 12.0362C13.8698 12.1413 13.9227 12.1583 14.5429 12.143C14.5452 12.1521 14.6439 12.1421 14.7126 12.1383C14.7896 12.1361 14.8763 12.1339 14.9677 12.1312C15.2325 12.1243 15.5326 12.1167 15.7483 12.1112C15.9594 12.1059 16.1698 12.1009 16.3809 12.0958C18.1278 12.0546 19.8755 12.0163 21.6181 11.9914C23.6422 11.9619 25.6691 11.9186 27.6966 11.8794C28.0841 11.871 28.4725 11.8619 28.8602 11.8526C27.6544 12.1509 28.5909 12.5821 31.2163 12.5031C31.3309 12.4996 31.4486 12.4949 31.5695 12.4894C31.7559 12.481 31.9424 12.4725 32.1287 12.4641C33.4709 12.4062 34.8241 12.3592 36.1728 12.3233C37.7218 12.2829 39.2717 12.2428 40.8206 12.2022C42.4615 12.1594 44.1012 12.1166 45.742 12.0744C47.3731 12.032 49.0052 11.991 50.6362 11.9443C52.5986 11.8862 54.5637 11.8234 56.5107 11.728C58.3941 11.6313 60.2627 11.5182 62.1633 11.4416C62.6709 11.4193 63.1794 11.398 63.688 11.3769C64.2376 11.366 64.7874 11.355 65.3376 11.3444C65.7292 11.3359 66.1194 11.3267 66.5098 11.3173C65.6976 11.6043 67.3178 12.0159 69.9373 11.937ZM245.462 0.958812C245.474 0.961515 245.487 0.964058 245.499 0.966766C245.609 0.961576 245.721 0.956599 245.831 0.951089C245.941 0.945593 245.54 0.944572 245.462 0.958812ZM243.858 2.44199C243.949 2.42881 244.198 2.42496 244.357 2.42352C244.187 2.42602 244.021 2.43378 243.858 2.44199Z" fill="#FF8A2D"/>
</svg>
