<svg width="270" height="14" viewBox="0 0 270 14" fill="none" xmlns="http://www.w3.org/2000/svg">
<path d="M75.5033 12.3505C75.6269 12.3468 75.7518 12.3421 75.8791 12.3364C76.0754 12.3277 76.2718 12.319 76.468 12.3102C77.8866 12.2502 79.336 12.2004 80.7971 12.1613C82.4768 12.1172 84.1574 12.0733 85.8367 12.029C87.6157 11.9822 89.3938 11.9355 91.1739 11.8893C92.9427 11.843 94.7142 11.7979 96.476 11.7476C98.5927 11.685 100.705 11.618 102.744 11.52C104.71 11.4209 106.634 11.3062 108.651 11.2263C111.172 11.1178 113.721 11.0194 116.326 10.9514C121.044 10.8142 125.752 10.6703 130.503 10.5525C140.451 10.2921 150.396 10.0287 160.244 9.71202C164.311 9.58385 168.367 9.45038 172.428 9.31938C172.905 9.31386 173.382 9.30915 173.862 9.30673C174.75 9.30471 175.436 9.26623 175.933 9.20687C176.222 9.19792 176.509 9.18802 176.799 9.17907C179.884 9.08286 184.795 8.93977 187.927 8.84739C189.525 8.80035 191.122 8.75302 192.72 8.70563C199.71 8.49607 206.706 8.28761 213.612 8.03502C213.968 8.02003 214.418 8.00368 214.874 7.98464C221.335 7.84881 227.785 7.7056 234.219 7.55033C237.301 7.48341 240.387 7.42061 243.476 7.35807C244.069 7.34606 245.059 7.40042 245.254 7.32082C245.275 7.31231 245.281 7.30963 245.302 7.30133C244.873 7.3048 244.674 7.30644 244.609 7.30088C244.84 7.30112 245.07 7.30016 245.302 7.30133L245.303 7.30129C247.42 6.43727 247.614 6.46295 245.09 6.43149C244.904 6.43142 244.719 6.43244 244.533 6.43263C246.925 6.32927 249.324 6.22825 251.734 6.13188C255.612 5.97832 259.54 5.84731 263.504 5.73664C266.912 5.64157 268.071 5.75531 264.651 4.8373C264.643 4.82924 264.635 4.82244 264.627 4.8142C264.622 4.80868 264.588 4.80858 264.548 4.80995C264.267 4.73992 263.426 4.83498 262.868 4.84652C260.135 4.90882 257.425 4.98456 254.727 5.06707C254.625 4.99828 254.363 4.89577 254.023 4.75341C255.08 4.67857 256.023 4.57805 256.504 4.43177C259.634 4.3639 262.762 4.29499 265.894 4.22833C270.565 4.07022 271.006 4.2359 268.405 3.25319C268.258 3.1975 267.58 3.24597 267.169 3.24785C267.004 3.24861 266.838 3.25019 266.673 3.25131C266.768 3.24414 266.824 3.23435 266.791 3.21853C264.866 2.27288 265.52 2.37733 261.523 2.48198C259.818 2.53801 258.116 2.59477 256.412 2.65148C256.225 2.60908 255.958 2.558 255.604 2.49677C255.763 2.35836 255.836 2.25615 255.82 2.18389C256.209 2.17262 256.633 2.16035 257.005 2.14968C260.034 2.0597 263.049 1.96126 266.036 1.85035C266.542 1.83157 267.055 1.81542 267.547 1.79099C267.894 1.77368 268.693 1.77537 268.546 1.72545C267.746 1.45393 266.33 1.22473 265.191 0.976461C265.175 0.977195 265.159 0.977714 265.143 0.978502L265.137 0.974635C265.134 0.972359 265.141 0.970398 265.151 0.968588C265.128 0.963428 265.101 0.958434 265.078 0.953268C263.389 1.02046 261.697 1.08548 260.002 1.14941C260.348 0.866257 258.614 0.530189 255.868 0.632215C251.285 0.785926 246.715 0.945826 242.137 1.10166C242.197 1.06842 242.257 1.03501 242.326 1.00224C241.052 0.912008 239.868 0.783409 238.503 0.731572C237.781 0.704129 237.049 0.758421 236.325 0.774292C235.402 0.794566 234.481 0.817717 233.56 0.840123C231.299 0.895131 229.042 0.953104 226.785 1.01056C226.242 0.965887 225.52 0.951102 224.62 0.984404C221.232 1.09791 217.845 1.2152 214.458 1.33143C213.261 1.36293 212.065 1.39414 210.869 1.42573C210.946 1.40162 211.023 1.37742 211.105 1.35365C210.035 1.25758 209.114 1.12148 207.896 1.06546C207.251 1.0358 206.466 1.09163 205.75 1.10728C204.836 1.12727 203.921 1.15025 203.007 1.17247C199.726 1.25215 196.444 1.33628 193.163 1.4199C185.239 1.62632 177.316 1.83791 169.392 2.04536C161.266 2.26221 153.143 2.50358 145.021 2.75452C143.645 2.79874 142.269 2.8444 140.893 2.88996C132.308 3.02162 123.388 3.20793 114.415 3.44297C94.1356 3.97564 74.4177 4.73537 58.3297 5.60395C56.8047 5.66506 55.2809 5.72963 53.758 5.7945C51.4557 5.8909 49.1608 5.99237 46.8502 6.07417C45.2245 6.13049 43.5958 6.17415 41.9684 6.21743C40.5832 6.255 39.1968 6.28898 37.8117 6.32497C35.1192 6.39597 35.0367 6.44946 35.8774 6.90192C34.5486 6.9491 33.2484 6.9957 31.9187 7.04375C30.7161 7.07435 29.9369 7.0912 29.4727 7.13338C29.0913 7.14815 28.7099 7.1632 28.328 7.17685C28.171 7.18234 27.822 7.16685 27.8573 7.18895C28.162 7.38001 28.354 7.51957 28.5218 7.63809C28.4945 7.69103 28.4548 7.75313 28.4207 7.81774C26.7726 7.87432 25.1243 7.9303 23.4765 7.98758C17.9152 8.17269 16.2475 8.23357 10.9249 8.39232C9.59019 8.43216 7.85314 8.33609 6.92074 8.5051C6.7789 8.53081 6.65484 8.55774 6.54059 8.58533C5.76871 8.54539 5.00025 8.50531 5.06694 8.54911C5.2875 8.69398 5.37284 8.85917 5.58252 9.0106C5.41389 9.15633 5.31641 9.3055 5.11784 9.44537C5.05526 9.48938 5.74963 9.41471 6.48678 9.33405C6.60731 9.35591 6.73898 9.37667 6.8904 9.3947C7.58179 9.47698 8.64914 9.40223 9.70013 9.33392C9.11566 9.53519 9.4298 9.76715 10.5557 9.86563C10.5651 10.0042 10.7329 10.1084 11.0198 10.1872C11.0102 10.2096 11.0073 10.2319 10.9898 10.2541C11.0298 10.2527 11.0697 10.2516 11.1099 10.2503C11.043 10.3088 11.0746 10.3566 11.1932 10.3953C8.73822 10.4866 6.29002 10.5902 3.83968 10.6905C3.44867 10.7112 3.05069 10.7245 2.65189 10.7373C2.34817 10.7354 2.05241 10.7343 1.95037 10.7608C1.70173 10.7696 1.45435 10.779 1.20958 10.7913C0.907551 10.8065 0.272855 10.8005 0.312614 10.8451C0.922321 11.5297 0.588651 11.6866 1.66572 11.6761C1.63956 11.6896 1.79405 11.6809 1.97759 11.6686C2.33793 11.659 2.78603 11.6417 3.43538 11.6186C4.19202 11.5871 4.94969 11.5567 5.70686 11.5261C5.5647 11.7047 6.07303 11.8778 7.42978 11.9368C7.07869 11.9537 6.72849 11.971 6.37937 11.9898C6.05538 12.0072 5.38823 11.9989 5.41484 12.0476C5.96185 13.049 5.3257 12.9476 9.37868 12.8008C10.7884 12.7459 12.1987 12.6914 13.6083 12.6361C14.334 12.6076 14.4903 12.6014 15.0889 12.5778C14.9444 12.6832 15.0014 12.7001 15.6714 12.6833C15.6738 12.6924 15.7805 12.6822 15.8547 12.6783C15.9378 12.6759 16.0316 12.6734 16.1302 12.6705C16.4163 12.663 16.7405 12.6548 16.9735 12.6488C17.2015 12.643 17.4288 12.6375 17.6568 12.632C19.5439 12.5867 21.4318 12.5444 23.3141 12.5155C25.5005 12.4814 27.69 12.4334 29.88 12.3896C30.2987 12.3803 30.7182 12.3703 31.137 12.3602C29.8329 12.6612 30.8417 13.0904 33.6779 13.0053C33.8017 13.0016 33.9289 12.9966 34.0595 12.9908C34.2608 12.982 34.4624 12.9731 34.6637 12.9642C36.1136 12.9033 37.5755 12.8532 39.0325 12.8142C40.7058 12.7703 42.38 12.7266 44.0533 12.6824C45.8258 12.6358 47.597 12.5893 49.3696 12.5433C51.1315 12.4972 52.8946 12.4524 54.6564 12.402C56.7764 12.3394 58.8992 12.272 61.0027 12.1722C63.0375 12.0711 65.0565 11.9538 67.1098 11.8728C67.6582 11.8493 68.2075 11.8269 68.7569 11.8046C69.3506 11.7924 69.9445 11.7802 70.5388 11.7683C70.9618 11.7589 71.3834 11.7488 71.8051 11.7386C70.9262 12.0275 72.6736 12.4354 75.5033 12.3505ZM265.151 0.968588C265.164 0.971265 265.178 0.973777 265.191 0.976461C265.31 0.971016 265.431 0.965782 265.55 0.960019C265.668 0.954271 265.235 0.954168 265.151 0.968588ZM263.409 2.4557C263.508 2.44231 263.777 2.43788 263.949 2.43607C263.765 2.43897 263.586 2.4471 263.409 2.4557Z" fill="#FF8A2D"/>
</svg>
