<svg width="50" height="50" viewBox="0 0 50 50" fill="none" xmlns="http://www.w3.org/2000/svg">
<path d="M24.9239 24.6151C28.1978 22.7412 30.4348 19.2521 30.4348 15.2173C30.4348 9.22378 25.5587 4.34766 19.5652 4.34766C13.5717 4.34766 8.69561 9.22378 8.69561 15.2173C8.69561 19.2521 10.9326 22.7412 14.2065 24.6151C6.01742 26.7651 0 33.6891 0 41.8955V44.5651C0 45.1651 0.48699 45.6521 1.08699 45.6521C1.68699 45.6521 2.17398 45.1651 2.17398 44.5651V41.8955C2.17388 33.1804 9.97611 26.0869 19.5652 26.0869C29.1543 26.0869 36.9565 33.1804 36.9565 41.8955V44.5651C36.9565 45.1651 37.4435 45.6521 38.0435 45.6521C38.6435 45.6521 39.1305 45.1651 39.1305 44.5651V41.8955C39.1304 33.6891 33.113 26.763 24.9239 24.6151ZM10.8696 15.2173C10.8696 10.4217 14.7696 6.52164 19.5652 6.52164C24.3608 6.52164 28.2608 10.4217 28.2608 15.2173C28.2608 20.0129 24.3608 23.9129 19.5652 23.9129C14.7696 23.9129 10.8696 20.013 10.8696 15.2173Z" fill="black"/>
<path d="M39.5605 24.6431C41.9169 23.0844 43.4779 20.4192 43.4779 17.391C43.4779 12.5953 39.5779 8.69531 34.7823 8.69531C34.1823 8.69531 33.6953 9.1823 33.6953 9.7823C33.6953 10.3823 34.1823 10.8693 34.7823 10.8693C38.3779 10.8693 41.304 13.7954 41.304 17.3911C41.304 20.9867 38.3779 23.9128 34.7823 23.9128C34.1823 23.9128 33.6953 24.3998 33.6953 24.9998C33.6953 25.5998 34.1822 26.0866 34.7822 26.0866C41.9756 26.0866 47.8256 31.4931 47.8256 38.1409V40.2169C47.8256 40.8169 48.3126 41.3039 48.9126 41.3039C49.5126 41.3039 49.9996 40.8169 49.9996 40.2169V38.1409C49.9996 31.8583 45.617 26.5214 39.5605 24.6431Z" fill="black"/>
</svg>
