<svg width="50" height="50" viewBox="0 0 50 50" fill="none" xmlns="http://www.w3.org/2000/svg">
<mask id="mask0_792_971" style="mask-type:luminance" maskUnits="userSpaceOnUse" x="0" y="0" width="50" height="50">
<path d="M50 0H0V50H50V0Z" fill="white"/>
</mask>
<g mask="url(#mask0_792_971)">
<path d="M46.875 4.16797H3.125C1.40205 4.16797 0 5.57002 0 7.29297V34.3763C0 36.0992 1.40205 37.5013 3.125 37.5013H25.7958L42.2437 45.7242C42.3895 45.7972 42.55 45.8347 42.7083 45.8347C42.9 45.8347 43.0895 45.7826 43.2562 45.6805C43.5625 45.4888 43.75 45.1534 43.75 44.793V37.5013H46.875C48.5979 37.5013 50 36.0992 50 34.3763V7.29297C50 5.57002 48.5979 4.16797 46.875 4.16797ZM47.9167 34.3763C47.9167 34.9492 47.4479 35.418 46.875 35.418H42.7083C42.1333 35.418 41.6666 35.8847 41.6666 36.4597V43.1076L26.5083 35.5264C26.3625 35.4576 26.202 35.4181 26.0416 35.4181H3.125C2.55205 35.4181 2.0833 34.9493 2.0833 34.3764V7.29297C2.0833 6.71797 2.55205 6.25127 3.125 6.25127H46.875C47.4479 6.25127 47.9167 6.71797 47.9167 7.29297V34.3763Z" fill="black"/>
<path d="M12.5003 22.9166C13.6508 22.9166 14.5836 21.9839 14.5836 20.8333C14.5836 19.6827 13.6508 18.75 12.5003 18.75C11.3497 18.75 10.417 19.6827 10.417 20.8333C10.417 21.9839 11.3497 22.9166 12.5003 22.9166Z" fill="black"/>
<path d="M37.5003 22.9166C38.6509 22.9166 39.5837 21.9839 39.5837 20.8333C39.5837 19.6827 38.6509 18.75 37.5003 18.75C36.3498 18.75 35.417 19.6827 35.417 20.8333C35.417 21.9839 36.3498 22.9166 37.5003 22.9166Z" fill="black"/>
<path d="M25.0003 22.9166C26.1509 22.9166 27.0836 21.9839 27.0836 20.8333C27.0836 19.6827 26.1509 18.75 25.0003 18.75C23.8498 18.75 22.917 19.6827 22.917 20.8333C22.917 21.9839 23.8498 22.9166 25.0003 22.9166Z" fill="black"/>
</g>
</svg>
