<svg width="50" height="50" viewBox="0 0 50 50" fill="none" xmlns="http://www.w3.org/2000/svg">
<mask id="mask0_792_961" style="mask-type:luminance" maskUnits="userSpaceOnUse" x="0" y="0" width="50" height="50">
<path d="M50 0H0V50H50V0Z" fill="white"/>
</mask>
<g mask="url(#mask0_792_961)">
<path d="M37.4997 29.1667C33.9955 29.1667 30.7872 30.9167 28.8851 33.7646L18.1893 28.0042C18.5559 27.0583 18.7497 26.0375 18.7497 25C18.7497 23.9625 18.5559 22.9395 18.1892 21.9958L28.8872 16.252C30.8101 19.0937 34.0142 20.8333 37.4997 20.8333C43.2434 20.8333 47.9164 16.1603 47.9164 10.4166C47.9164 4.67295 43.2434 0 37.4997 0C31.7559 0 27.083 4.67295 27.083 10.4167C27.083 11.8125 27.3705 13.1729 27.8975 14.4187L17.1913 20.1667C15.6288 17.9875 13.1183 16.6667 10.4163 16.6667C5.82051 16.6667 2.08301 20.4042 2.08301 25C2.08301 29.5958 5.82051 33.3333 10.4163 33.3333C13.1205 33.3333 15.6288 32.0125 17.1892 29.8353L27.8872 35.5958C27.3664 36.8375 27.083 38.1937 27.083 39.5833C27.083 45.327 31.7559 50 37.4997 50C43.2434 50 47.9164 45.327 47.9164 39.5833C47.9164 33.8395 43.2434 29.1667 37.4997 29.1667ZM37.4997 2.0833C42.0955 2.0833 45.833 5.8208 45.833 10.4166C45.833 15.0124 42.0955 18.75 37.4997 18.75C34.4684 18.75 31.6934 17.1187 30.2247 14.4875C30.2059 14.4395 30.1851 14.3937 30.1622 14.35C29.5101 13.177 29.1664 11.8167 29.1664 10.4167C29.1664 5.8208 32.9039 2.0833 37.4997 2.0833ZM15.9184 27.9604C14.8122 29.9895 12.7039 31.25 10.4164 31.25C6.97061 31.25 4.16641 28.4458 4.16641 25C4.16641 21.5542 6.97061 18.75 10.4164 18.75C12.7039 18.75 14.8122 20.0104 15.9206 22.0437C16.4081 22.9312 16.6664 23.9542 16.6664 25C16.6664 26.0458 16.408 27.0687 15.9184 27.9604ZM37.4997 47.9167C32.9039 47.9167 29.1664 44.1792 29.1664 39.5834C29.1664 38.1854 29.5101 36.8271 30.1664 35.6417V35.6396C30.1664 35.6396 30.1664 35.6376 30.1684 35.6376C31.608 32.9312 34.4184 31.25 37.4997 31.25C42.0955 31.25 45.833 34.9875 45.833 39.5833C45.833 44.1792 42.0955 47.9167 37.4997 47.9167Z" fill="black"/>
</g>
</svg>
